<?xml version="1.0" encoding="UTF-8" standalone="no"?>
<svg
   xmlns:dc="http://purl.org/dc/elements/1.1/"
   xmlns:cc="http://creativecommons.org/ns#"
   xmlns:rdf="http://www.w3.org/1999/02/22-rdf-syntax-ns#"
   xmlns:svg="http://www.w3.org/2000/svg"
   xmlns="http://www.w3.org/2000/svg"
   viewBox="0 0 613.85333 525.15997"
   height="525.15997"
   width="613.85333"
   xml:space="preserve"
   id="svg2"
   version="1.1"><metadata
     id="metadata8"><rdf:RDF><cc:Work
         rdf:about=""><dc:format>image/svg+xml</dc:format><dc:type
           rdf:resource="http://purl.org/dc/dcmitype/StillImage" /></cc:Work></rdf:RDF></metadata><defs
     id="defs6"><clipPath
       id="clipPath106"
       clipPathUnits="userSpaceOnUse"><path
         id="path104"
         d="m 427.051,326.539 c -52.571,7.082 -87.406,19.441 -87.406,33.512 0,7.058 8.75,13.679 24.101,19.429 19.453,-18.89 40.543,-36.539 63.305,-52.941" /></clipPath><clipPath
       id="clipPath118"
       clipPathUnits="userSpaceOnUse"><path
         id="path116"
         d="M 0,0 H 4603.93 V 3938.71 H 0 Z" /></clipPath><clipPath
       id="clipPath124"
       clipPathUnits="userSpaceOnUse"><path
         id="path122"
         d="m 389.336,670.609 c 0,-45.828 69.98,-82.988 156.305,-82.988 86.328,0 156.304,37.16 156.304,82.988 0,10.969 364.035,210.422 356.765,220 C 1035.57,921.082 833.859,1327.42 514.145,1351.03 195.824,1374.54 16.4375,953.699 0.015625,917.211 -2.77734,911 389.336,677.27 389.336,670.609" /></clipPath><clipPath
       id="clipPath156"
       clipPathUnits="userSpaceOnUse"><path
         id="path154"
         d="m 3909.43,895.242 c 0,-45.832 69.98,-82.992 156.3,-82.992 86.33,0 156.31,37.16 156.31,82.992 0,10.957 364.03,210.418 356.75,219.998 -23.13,30.47 -224.84,436.81 -544.56,460.42 -318.32,23.5 -497.7,-397.33 -514.13,-433.82 -2.79,-6.21 389.33,-239.942 389.33,-246.598" /></clipPath><clipPath
       id="clipPath260"
       clipPathUnits="userSpaceOnUse"><path
         id="path258"
         d="m 2996.03,603.352 c 159.58,42.019 269,31.726 269,31.726 -14.8,44.863 -39.47,75.231 -70.56,131.57 -31.1,56.34 -44.57,127.891 0,226.582 44.57,98.68 -7.16,148.97 -50.24,293.22 -7.88,26.39 -37.71,56.48 -65.15,58.86 -53.32,4.62 -118.5,8.13 -118.5,8.13 0,0 -243.28,29.93 -269.6,-33.55 -26.32,-63.49 -65.79,-257.61 -19.73,-380.14 46.05,-122.531 32.68,-232.781 36.19,-307.988 2.89,-62.192 29.6,-145.141 65.79,-128.703 36.18,16.453 142.21,79.07 222.8,100.293" /></clipPath></defs><g
     transform="matrix(1.3333333,0,0,-1.3333333,0,525.16)"
     id="g10"><g
       transform="scale(0.1)"
       id="g12"><path
         id="path14"
         style="fill:#53a098;fill-opacity:1;fill-rule:nonzero;stroke:none"
         d="m 759.32,243.309 h 3078.32 c 364.25,89.101 577.24,261.472 609.35,558.632 71.39,660.599 -426.88,505.029 -625.76,1281.299 -143.79,561.23 -980.09,677.57 -1385.93,550.17 -229.45,-72.03 -387.01,-24.74 -561.02,22.56 -176.12,47.87 -369.11,95.74 -670.54,19.89 C 465.352,2490.09 734.496,2056.93 346.363,1316.31 57.8516,765.801 204.016,325.18 690.938,211.449 c 18.746,19.602 43.281,31.86 68.382,31.86" /><path
         id="path16"
         style="fill:#53a098;fill-opacity:1;fill-rule:nonzero;stroke:none"
         d="m 1801.8,0 c -419.21,0 -637.02,39.9883 -745.98,82 l 1283.01,161.309 h 451.27 c 4.28,-6.418 10.06,-12.227 17.47,-17.27 v 0 c 0.07,-0.051 0.13,-0.09 0.2,-0.141 v 0 c 0.6,-0.398 1.21,-0.808 1.82,-1.218 0.24,-0.149 0.46,-0.301 0.7,-0.461 32.2,-21.149 82.83,-42.75 141.59,-56.16 36.26,-8.278 75.64,-13.43 115.7,-13.43 67.73,0 137.41,14.723 197.45,54 0,0 44.74,-38.059 172.48,-38.07 21.29,0 44.87,1.062 70.96,3.531 0,0 4.3,4.73 10.35,12.89 53.21,13.29 97.58,50.579 162.36,53.731 3.9,0.187 7.76,0.269 11.59,0.269 20.41,0 39.84,-2.46 58.51,-4.921 18.66,-2.457 36.56,-4.93 53.91,-4.93 8.5,0 16.87,0.59 25.13,2.07 14.04,2.5 26.14,8.961 36.22,17.442 39.08,10.269 76.35,21.558 111.73,33.918 41.97,-17.297 65.34,-36.489 65.34,-56.688 0,-76.191 -332.15,-137.9413 -741.89,-137.9413 -211.53,0 -402.38,16.4493 -537.53,42.8713 -19.39,-11.66 -54.44,-20.199 -96.11,-22.75 C 2593.61,74.0117 2341.01,13.8594 2064.94,4.64844 1969.43,1.46875 1881.94,0 1801.8,0" /><path
         id="path18"
         style="fill:#53a098;fill-opacity:1;fill-rule:nonzero;stroke:none"
         d="m 2790.1,243.309 h -451.27 l 430.94,54.191 c 2.94,-9.309 6.5,-18.422 10.78,-27.18 h 0.28 c 0.88,-9.832 3.88,-18.91 9.27,-27.011 m 1076.44,7.332 c 19.59,16.488 31.56,40.64 35.38,58.328 29.71,-7.59 55.36,-15.758 76.35,-24.41 -35.38,-12.36 -72.65,-23.649 -111.73,-33.918 m -228.39,64.05 c 22.86,8.071 48.17,17.45 74.68,28.028 23.63,-2.93 46.32,-6.11 67.93,-9.508 -63.7,-5.621 -105.14,-13.691 -142.61,-18.52" /><path
         id="path20"
         style="fill:#e5f4f4;fill-opacity:1;fill-rule:nonzero;stroke:none"
         d="m 3871.46,2564.29 c -49.98,0 -57.09,-77.85 -6.72,-77.85 49.97,0 57.08,77.85 6.72,77.85" /><path
         id="path22"
         style="fill:#e5f4f4;fill-opacity:1;fill-rule:nonzero;stroke:none"
         d="m 4592.66,1462.19 -5.64,3.4 c -9.19,5.51 -19.67,7.16 -29.68,2.56 -9.79,-4.49 -16.54,-14.11 -17.46,-24.83 -0.93,-10.71 4.08,-21.34 12.95,-27.44 7.94,-5.47 20.93,-7.78 29.68,-2.57 2.08,1.25 4.17,2.49 6.25,3.74 8.23,4.92 14.21,11.43 15.08,21.44 0.76,8.82 -3.36,19 -11.18,23.7" /><path
         id="path24"
         style="fill:#e5f4f4;fill-opacity:1;fill-rule:nonzero;stroke:none"
         d="m 498.363,2718.47 c -45.148,0 -51.574,-70.34 -6.066,-70.34 45.148,0 51.574,70.34 6.066,70.34" /><path
         id="path26"
         style="fill:#e5f4f4;fill-opacity:1;fill-rule:nonzero;stroke:none"
         d="m 344.789,2153.96 c -1.086,1.32 -2.172,2.65 -3.254,3.97 -9.859,12.03 -26.515,16.24 -40.996,11.76 -16.848,-5.21 -27.746,-20.71 -27.012,-38.3 0.637,-15.44 10.52,-29.58 25.364,-34.86 6.144,-2.19 13.148,-2.51 19.57,-1.69 10.555,1.34 18.887,8.4 25.352,16.21 0.964,1.17 1.925,2.34 2.89,3.5 1.281,2.51 2.559,5.01 3.84,7.52 1.586,4.01 2.117,8.1 1.59,12.29 -0.297,7.25 -2.66,13.89 -7.344,19.6" /><path
         id="path28"
         style="fill:#e5f4f4;fill-opacity:1;fill-rule:nonzero;stroke:none"
         d="m 1047.71,3010.59 c -31.12,0 -35.55,-48.48 -4.18,-48.48 31.12,0 35.55,48.48 4.18,48.48" /><path
         id="path30"
         style="fill:#e5f4f4;fill-opacity:1;fill-rule:nonzero;stroke:none"
         d="m 4598.55,914.059 -0.37,2.41 c -1.31,7.429 -4.38,14.031 -9.22,19.82 -4.87,5.762 -10.86,9.922 -17.95,12.481 -4.35,1.101 -8.7,2.191 -13.15,2.691 -3.85,-0.16 -7.71,-0.32 -11.56,-0.481 -6.1,-0.808 -11.55,-3.058 -16.32,-6.718 -3.76,-1.762 -6.84,-4.332 -9.21,-7.742 -3.12,-2.641 -5.36,-5.872 -6.75,-9.711 -4.42,-8.668 -6.31,-18.379 -4.64,-28.09 1.72,-10.039 7.01,-18.758 14.46,-25.52 2.64,-3.121 5.87,-5.371 9.71,-6.75 3.29,-2.25 6.91,-3.551 10.88,-3.898 9.53,-2.071 19.43,-1.403 28.41,2.719 7.25,3.332 13.64,9.171 18.41,15.48 7.08,9.359 8.53,22.09 7.3,33.309" /><path
         id="path32"
         style="fill:#e5f4f4;fill-opacity:1;fill-rule:nonzero;stroke:none"
         d="m 275.996,1641.83 c -37.266,0 -42.562,-58.05 -5.016,-58.05 37.266,0 42.571,58.05 5.016,58.05" /><path
         id="path34"
         style="fill:#9dddf5;fill-opacity:1;fill-rule:nonzero;stroke:none"
         d="m 2661.41,1359.97 c 68.09,299.72 100.31,602.24 -84.73,809.51 -36.44,40.81 -79.1,78.59 -131.19,95.3 -52.09,16.71 -115.22,8.02 -151.62,-32.81 -49.48,-55.51 -31.75,-145.13 10.09,-206.59 62.28,-91.53 150.65,-175 190.12,-282.74 46.28,-126.32 82.24,-295.54 39.74,-420.18" /><path
         id="path36"
         style="fill:#ffffff;fill-opacity:1;fill-rule:nonzero;stroke:none"
         d="m 2328.71,2256.36 c 0.01,-0.01 1.18,-1.17 3.46,-3.51 34.27,-35.22 309.9,-332.1 309.76,-726.4 0,-79.64 -11.21,-163.28 -37.88,-249.65 l 9.55,-2.95 c 26.98,87.35 38.33,172.02 38.33,252.6 -0.01,212.84 -79.1,397.03 -158.07,528 -78.99,130.98 -157.93,208.82 -158.13,209.03 l -7.02,-7.12" /><path
         id="path38"
         style="fill:#ffffff;fill-opacity:1;fill-rule:nonzero;stroke:none"
         d="m 2522.15,2162.86 0.09,-0.26 c 0.5,-1.49 2.81,-9.12 2.8,-19.64 0,-9.65 -1.91,-21.67 -8.8,-33.93 -6.91,-12.26 -18.81,-24.9 -39.45,-35.72 -2.45,-1.28 -3.39,-4.3 -2.11,-6.75 1.28,-2.44 4.3,-3.39 6.75,-2.11 22.09,11.55 35.65,25.64 43.53,39.68 7.89,14.04 10.09,27.88 10.08,38.83 -0.01,13.68 -3.36,22.95 -3.49,23.32 -0.95,2.6 -3.82,3.93 -6.41,2.99 -2.59,-0.95 -3.93,-3.82 -2.99,-6.41" /><path
         id="path40"
         style="fill:#ffffff;fill-opacity:1;fill-rule:nonzero;stroke:none"
         d="m 2374.87,2011.53 c 0.16,-0.23 9.67,-14.52 26.33,-28.95 16.64,-14.38 40.64,-29.12 69.8,-29.15 19.02,-0.02 39.97,6.41 61.64,22.79 2.2,1.66 2.64,4.8 0.98,7 -1.67,2.21 -4.8,2.64 -7.01,0.98 -20.26,-15.26 -38.85,-20.75 -55.61,-20.77 -25.62,-0.04 -47.61,13.16 -63.26,26.72 -7.81,6.75 -13.99,13.54 -18.2,18.61 -2.1,2.54 -3.71,4.64 -4.78,6.1 l -1.2,1.68 -0.37,0.53 c -1.53,2.3 -4.63,2.92 -6.93,1.39 -2.3,-1.53 -2.92,-4.63 -1.39,-6.93" /><path
         id="path42"
         style="fill:#ffffff;fill-opacity:1;fill-rule:nonzero;stroke:none"
         d="m 2645.77,1933.53 0.15,-1.23 c 0.29,-2.51 0.89,-8.7 0.89,-16.7 0.03,-13.74 -1.84,-32.84 -9.55,-47.81 -3.85,-7.5 -9.05,-13.95 -16.15,-18.58 -7.11,-4.62 -16.21,-7.53 -28.36,-7.54 h -0.85 c -2.76,0.03 -5.02,-2.18 -5.05,-4.94 -0.03,-2.76 2.19,-5.03 4.95,-5.06 h 0.95 c 13.76,-0.01 25,3.4 33.82,9.16 13.27,8.65 20.79,22.16 25,35.88 4.21,13.76 5.24,27.95 5.24,38.89 0,11.33 -1.12,19.18 -1.14,19.35 -0.39,2.73 -2.93,4.63 -5.66,4.24 -2.73,-0.39 -4.63,-2.92 -4.24,-5.66" /><path
         id="path44"
         style="fill:#84b5ce;fill-opacity:1;fill-rule:nonzero;stroke:none"
         d="m 3320.22,1452.69 c 39.33,250.17 105.57,563.59 -105.57,756.17 -21.83,19.91 -46.08,38.35 -74.39,46.83 -28.31,8.49 -61.49,5.47 -83.82,-13.88 -30.63,-26.53 -57.79,-79.94 -17.59,-168.95 68.66,-152.02 190.73,-246.96 158.55,-573.22" /><path
         id="path46"
         style="fill:#ffffff;fill-opacity:1;fill-rule:nonzero;stroke:none"
         d="m 3053.28,2237.94 c 90.3,-73.75 168.78,-179.17 199.63,-298.19 22.33,-86.12 30.29,-175.27 30.29,-264.68 0,-34.74 -1.2,-69.52 -3.23,-104.17 l 9.99,-0.58 c 2.03,34.81 3.24,69.78 3.24,104.75 0,90 -8,180 -30.61,267.19 -31.58,121.63 -111.32,228.52 -202.99,303.42 l -6.32,-7.74" /><path
         id="path48"
         style="fill:#ffffff;fill-opacity:1;fill-rule:nonzero;stroke:none"
         d="m 3182.99,2098.26 0.56,-0.01 c 2.28,0.03 11.08,0.24 19.96,5.25 4.43,2.52 8.85,6.33 12.09,11.87 3.24,5.53 5.22,12.67 5.21,21.55 0,8.47 -1.76,18.56 -5.86,30.72 -0.89,2.62 -3.72,4.02 -6.34,3.14 -2.62,-0.89 -4.02,-3.72 -3.14,-6.34 3.85,-11.39 5.34,-20.44 5.34,-27.52 -0.01,-7.44 -1.6,-12.66 -3.85,-16.5 -3.35,-5.73 -8.4,-8.72 -13.23,-10.39 -4.79,-1.65 -9.18,-1.79 -10.18,-1.78 h -0.21 c -2.76,0.1 -5.07,-2.06 -5.17,-4.82 -0.09,-2.76 2.06,-5.07 4.82,-5.17" /><path
         id="path50"
         style="fill:#ffffff;fill-opacity:1;fill-rule:nonzero;stroke:none"
         d="m 3118.09,2015.93 c 0.15,-0.25 7.28,-12.29 20.21,-24.5 12.9,-12.16 31.86,-24.74 55.63,-24.77 15.63,-0.02 32.99,5.57 51.17,19.63 2.19,1.69 2.59,4.83 0.9,7.01 -1.68,2.19 -4.82,2.59 -7.01,0.91 -16.83,-12.97 -31.82,-17.53 -45.06,-17.55 -20.03,-0.04 -36.85,10.79 -48.77,22.05 -5.94,5.6 -10.6,11.24 -13.75,15.45 -1.58,2.11 -2.78,3.85 -3.57,5.06 l -0.89,1.38 -0.26,0.43 c -1.41,2.37 -4.47,3.16 -6.85,1.75 -2.38,-1.4 -3.16,-4.47 -1.75,-6.85" /><path
         id="path52"
         style="fill:#ffffff;fill-opacity:1;fill-rule:nonzero;stroke:none"
         d="m 3277.39,1825.95 c 0.31,-0.09 5.84,-1.75 13.63,-1.76 8.67,-0.01 20.52,2.14 30.16,11.54 9.64,9.41 16.32,25.42 16.3,51.22 0,5.7 -0.32,11.89 -1.01,18.63 -0.28,2.75 -2.73,4.75 -5.48,4.47 -2.74,-0.28 -4.74,-2.74 -4.47,-5.48 0.66,-6.44 0.96,-12.3 0.96,-17.62 -0.02,-24.23 -6.16,-37.1 -13.29,-44.06 -7.12,-6.97 -16,-8.68 -23.17,-8.7 -3.17,0 -5.93,0.35 -7.87,0.7 -0.96,0.17 -1.72,0.34 -2.22,0.46 l -0.54,0.14 -0.11,0.03 c -2.65,0.8 -5.44,-0.7 -6.23,-3.34 -0.8,-2.64 0.7,-5.43 3.34,-6.23" /><path
         id="path54"
         style="fill:#9dddf5;fill-opacity:1;fill-rule:nonzero;stroke:none"
         d="m 2990.84,1711.19 c 30.42,339.46 -26.93,636.55 -260.98,836.92 -46.09,39.46 -98.57,74.66 -158.28,85.31 -59.72,10.65 -127.81,-8.25 -161.77,-58.52 -46.15,-68.32 -13.39,-164.18 41.69,-225.55 81.99,-91.35 191.47,-169.99 250.81,-282.54 69.56,-131.96 134.15,-312.61 105.91,-455.88" /><path
         id="path56"
         style="fill:#ffffff;fill-opacity:1;fill-rule:nonzero;stroke:none"
         d="m 2439.92,2459.97 c 0.15,-0.19 13.65,-18.43 35.37,-36.81 21.71,-18.32 51.72,-37.08 85.41,-37.15 27.02,-0.07 55.82,12.54 82.38,45.81 1.72,2.15 1.38,5.3 -0.78,7.03 -2.15,1.72 -5.3,1.38 -7.03,-0.78 -25.34,-31.49 -50.71,-42 -74.57,-42.06 -29.79,-0.07 -58.16,17.14 -78.95,34.78 -10.4,8.8 -18.89,17.63 -24.75,24.24 -2.94,3.3 -5.21,6.05 -6.75,7.96 -0.77,0.95 -1.35,1.7 -1.73,2.2 l -0.56,0.73 c -1.64,2.22 -4.78,2.69 -6.99,1.05 -2.22,-1.65 -2.69,-4.78 -1.05,-7" /><path
         id="path58"
         style="fill:#ffffff;fill-opacity:1;fill-rule:nonzero;stroke:none"
         d="m 2740.63,2290.12 c 0.35,0.11 16.33,4.31 32.63,16.3 16.26,11.89 33.01,32.25 32.97,63.41 -0.02,24.16 -9.9,54.23 -36.24,91.79 -1.59,2.26 -4.71,2.81 -6.97,1.22 -2.26,-1.58 -2.81,-4.7 -1.22,-6.96 25.62,-36.51 34.44,-64.7 34.43,-86.05 -0.05,-27.38 -14.23,-44.45 -28.91,-55.36 -7.32,-5.4 -14.72,-9.11 -20.24,-11.44 -2.77,-1.17 -5.06,-1.99 -6.64,-2.51 l -1.81,-0.57 -0.56,-0.16 c -2.67,-0.71 -4.26,-3.44 -3.55,-6.11 0.7,-2.67 3.44,-4.26 6.11,-3.56" /><path
         id="path60"
         style="fill:#ffffff;fill-opacity:1;fill-rule:nonzero;stroke:none"
         d="m 2918.36,1567.47 c 1.03,23.36 1.53,46.28 1.53,68.79 0.02,344.66 -117.23,589.57 -234.52,748.13 -117.29,158.58 -234.56,230.93 -234.93,231.16 l -5.25,-8.51 1.27,-0.8 c 13.33,-8.53 129.27,-85.32 241.77,-242.79 112.5,-157.48 221.64,-395.53 221.66,-727.19 0,-22.36 -0.5,-45.14 -1.52,-68.35 l 9.99,-0.44" /><path
         id="path62"
         style="fill:#84b5ce;fill-opacity:1;fill-rule:nonzero;stroke:none"
         d="m 3537.15,1211.82 c -51.14,280.48 -8.89,577.17 118.51,832.23 53.31,106.71 122.42,210.76 132.76,329.59 1.63,18.77 1.63,38.3 -5.73,55.65 -15.65,36.88 -60.13,53.2 -100.19,52.83 -72.07,-0.67 -139.33,-42.61 -184.22,-99 -44.9,-56.38 -70.07,-125.93 -87.76,-195.8 -78.3,-309.38 -22.2,-634.98 34.19,-949.08" /><path
         id="path64"
         style="fill:#ffffff;fill-opacity:1;fill-rule:nonzero;stroke:none"
         d="m 3706.62,2483.02 c -0.64,-0.65 -258.65,-284.52 -258.62,-927.65 0,-82.06 4.2,-169.97 13.66,-263.88 l 9.95,1.01 c -9.43,93.58 -13.61,181.15 -13.61,262.87 0,320.21 64.18,550.57 128.26,700.84 32.04,75.13 64.05,130.23 88.02,166.51 11.99,18.14 21.96,31.58 28.92,40.46 3.47,4.43 6.2,7.73 8.04,9.91 0.93,1.09 1.63,1.9 2.1,2.43 l 0.67,0.77 -7.39,6.73" /><path
         id="path66"
         style="fill:#ffffff;fill-opacity:1;fill-rule:nonzero;stroke:none"
         d="m 3507.32,2332.31 c -0.18,-0.4 -19.95,-29.55 -20.06,-63.55 -0.02,-14.39 3.7,-29.77 14.27,-43.55 10.56,-13.79 27.72,-25.78 53.85,-34.18 2.63,-0.85 5.44,0.6 6.29,3.23 0.85,2.63 -0.6,5.44 -3.23,6.29 -24.75,7.98 -39.91,18.92 -48.97,30.74 -9.03,11.83 -12.2,24.73 -12.21,37.47 -0.02,15.01 4.56,29.63 9.2,40.42 2.32,5.4 4.64,9.84 6.37,12.9 0.87,1.54 1.58,2.72 2.07,3.52 l 0.57,0.89 0.17,0.26 c 1.53,2.3 0.91,5.4 -1.38,6.94 -2.3,1.53 -5.4,0.92 -6.94,-1.38" /><path
         id="path68"
         style="fill:#ffffff;fill-opacity:1;fill-rule:nonzero;stroke:none"
         d="m 3731.46,2398.07 c 0,0 0.02,-0.46 0.02,-1.44 0.02,-6.12 -0.73,-30.73 -10.27,-53.12 -4.76,-11.2 -11.65,-21.78 -21.51,-29.5 -9.87,-7.71 -22.71,-12.77 -40.32,-12.8 -14.34,0 -31.86,3.45 -53.09,11.91 -2.57,1.02 -5.47,-0.23 -6.5,-2.79 -1.02,-2.57 0.23,-5.48 2.8,-6.5 22.11,-8.8 40.84,-12.61 56.79,-12.62 19.56,-0.02 34.94,5.84 46.5,14.93 17.36,13.67 26.08,33.93 30.65,51.78 4.56,17.89 4.94,33.58 4.95,38.71 0,1.09 -0.02,1.7 -0.02,1.75 -0.09,2.76 -2.4,4.93 -5.16,4.84 -2.76,-0.08 -4.92,-2.39 -4.84,-5.15" /><path
         id="path70"
         style="fill:#ffffff;fill-opacity:1;fill-rule:nonzero;stroke:none"
         d="m 3590.26,2082.35 -0.03,-1.09 c -0.14,-5.56 -1.4,-31.48 -9.75,-55.41 -4.15,-11.96 -10.07,-23.36 -18.13,-31.51 -8.11,-8.15 -18.04,-13.24 -31.6,-13.29 -9.04,0 -19.79,2.37 -32.51,8.14 -2.51,1.14 -5.48,0.02 -6.62,-2.49 -1.14,-2.52 -0.02,-5.48 2.49,-6.62 13.7,-6.21 25.84,-9.02 36.64,-9.03 17.32,-0.05 30.9,7.46 40.59,18.25 14.6,16.2 21.53,39.35 25.18,58.46 3.6,19.13 3.73,34.31 3.74,34.5 0.02,2.76 -2.19,5.02 -4.96,5.05 -2.76,0.02 -5.02,-2.19 -5.04,-4.96" /><path
         id="path72"
         style="fill:#9dddf5;fill-opacity:1;fill-rule:nonzero;stroke:none"
         d="m 3608.57,1216.61 c -2.72,108.17 41.09,213.17 101.86,302.7 60.78,89.54 138.19,166.24 212.15,245.23 47.82,51.04 97.82,118.71 74.11,184.5 -19.62,54.49 -83.6,80.66 -141.51,80.9 -89.73,0.36 -175.32,-46.53 -235.85,-112.77 -60.54,-66.24 -98.41,-150.28 -124.49,-236.13 -40.06,-131.85 -54.38,-271.46 -41.92,-408.68" /><path
         id="path74"
         style="fill:#ffffff;fill-opacity:1;fill-rule:nonzero;stroke:none"
         d="m 3961.07,1999.96 c -0.5,-0.19 -112.35,-41.35 -224.22,-165.92 -111.89,-124.55 -223.55,-332.63 -223.51,-665.42 0,-3.36 0.01,-6.74 0.03,-10.14 l 10,0.07 c -0.02,3.37 -0.03,6.73 -0.03,10.07 0.04,330.55 110.61,535.8 220.95,658.74 55.18,61.46 110.36,102.3 151.68,127.77 20.67,12.73 37.87,21.62 49.87,27.31 6,2.84 10.71,4.89 13.89,6.22 1.59,0.66 2.81,1.15 3.62,1.46 l 1.17,0.45 -3.45,9.39" /><path
         id="path76"
         style="fill:#ffffff;fill-opacity:1;fill-rule:nonzero;stroke:none"
         d="m 3726.43,1964.47 c -0.22,-0.18 -9.6,-7.25 -19.08,-19.4 -9.45,-12.14 -19.18,-29.52 -19.21,-50.32 -0.05,-22.49 11.73,-48.02 45.01,-73.03 l 6.02,7.98 c -31.66,23.98 -40.98,46.18 -41.03,65.05 -0.03,17.54 8.39,33.03 17.09,44.17 4.34,5.56 8.69,9.99 11.94,13.02 1.63,1.51 2.97,2.66 3.9,3.43 l 1.06,0.86 0.32,0.25 -6.02,7.98" /><path
         id="path78"
         style="fill:#ffffff;fill-opacity:1;fill-rule:nonzero;stroke:none"
         d="m 3627.05,1669.36 c 0.18,-0.2 7.88,-9.17 20.59,-18.24 12.7,-9.04 30.5,-18.33 51.04,-18.36 15,-0.03 31.28,5.15 47,18.57 15.74,13.4 31.03,34.85 45.13,67.57 l -9.19,3.95 c -13.67,-31.77 -28.28,-51.88 -42.43,-63.91 -14.17,-12.02 -27.77,-16.15 -40.51,-16.18 -17.39,-0.03 -33.5,8.11 -45.24,16.5 -5.86,4.18 -10.61,8.38 -13.86,11.51 -1.63,1.57 -2.89,2.87 -3.73,3.76 l -0.93,1.02 -0.28,0.32 -7.59,-6.51" /><path
         id="path80"
         style="fill:#84b5ce;fill-opacity:1;fill-rule:nonzero;stroke:none"
         d="m 841.949,1090.38 c -20.054,252.45 -28.676,572.68 -278.879,710.75 -25.879,14.27 -53.75,26.55 -83.254,28.21 -29.507,1.65 -61.066,-9 -78.281,-33.03 -23.605,-32.94 -37.57,-91.21 22.274,-168.41 C 526,1496.08 666.828,1432.2 711.566,1107.43" /><path
         id="path82"
         style="fill:#ffffff;fill-opacity:1;fill-rule:nonzero;stroke:none"
         d="m 399.359,1791.81 c 105.004,-50.67 205.895,-134.9 263.625,-243.46 58.032,-109.07 90.457,-230.29 112.282,-352.39 l 9.843,1.76 c -21.929,122.65 -54.55,244.9 -113.296,355.33 -59.047,110.93 -161.508,196.29 -268.106,247.77 l -4.348,-9.01" /><path
         id="path84"
         style="fill:#ffffff;fill-opacity:1;fill-rule:nonzero;stroke:none"
         d="m 558.051,1686.2 c 0.383,0.09 7.246,1.45 14.472,6.44 3.602,2.5 7.305,5.96 10.114,10.67 2.816,4.7 4.66,10.66 4.648,17.71 -0.015,10.7 -4.062,23.76 -14.316,40.09 -1.469,2.34 -4.555,3.04 -6.895,1.58 -2.336,-1.47 -3.043,-4.56 -1.57,-6.9 9.629,-15.32 12.793,-26.69 12.781,-34.77 -0.012,-5.36 -1.324,-9.36 -3.238,-12.59 -2.859,-4.83 -7.34,-8.01 -11.231,-9.93 -1.933,-0.97 -3.691,-1.61 -4.929,-2 l -1.426,-0.41 -0.34,-0.08 -0.051,-0.01 c -2.707,-0.55 -4.457,-3.18 -3.91,-5.89 0.547,-2.71 3.184,-4.46 5.891,-3.91" /><path
         id="path86"
         style="fill:#ffffff;fill-opacity:1;fill-rule:nonzero;stroke:none"
         d="m 514.121,1591.02 c 0.18,-0.19 7.824,-8.07 20.254,-16.02 12.422,-7.93 29.699,-16.04 49.293,-16.07 19.727,-0.08 41.469,8.64 60.879,32.86 1.734,2.15 1.394,5.3 -0.754,7.03 -2.152,1.73 -5.301,1.39 -7.031,-0.76 -18.074,-22.29 -36.27,-29.05 -53.094,-29.13 -16.734,-0.03 -32.434,7.14 -43.906,14.49 -5.735,3.67 -10.399,7.35 -13.602,10.1 -1.601,1.37 -2.84,2.51 -3.664,3.29 l -0.926,0.89 -0.269,0.28 c -1.922,1.98 -5.086,2.03 -7.071,0.11 -1.984,-1.93 -2.031,-5.09 -0.109,-7.07" /><path
         id="path88"
         style="fill:#ffffff;fill-opacity:1;fill-rule:nonzero;stroke:none"
         d="m 713.313,1443.39 1.402,-0.03 c 3.82,0.03 14.887,0.48 25.629,6.85 5.347,3.18 10.578,7.94 14.375,14.75 3.801,6.81 6.125,15.56 6.121,26.53 -0.004,11.6 -2.551,25.72 -8.629,43.1 -0.91,2.61 -3.766,3.98 -6.371,3.07 -2.606,-0.91 -3.981,-3.76 -3.07,-6.37 5.816,-16.61 8.074,-29.68 8.07,-39.8 -0.008,-9.59 -1.992,-16.52 -4.856,-21.65 -4.293,-7.67 -10.742,-11.71 -17.011,-13.97 -6.231,-2.25 -12.129,-2.52 -14.258,-2.51 l -0.676,0.01 h -0.152 c -2.758,0.16 -5.121,-1.94 -5.282,-4.7 -0.156,-2.76 1.95,-5.12 4.708,-5.28" /><path
         id="path90"
         style="fill:#9dddf5;fill-opacity:1;fill-rule:nonzero;stroke:none"
         d="m 1109.04,906.691 c -115.095,260.839 -143.149,559.209 -78.69,836.939 26.96,116.19 69.93,233.48 52.3,351.46 -2.79,18.62 -7.34,37.62 -18.54,52.77 -23.83,32.22 -70.872,37.73 -109.751,28.03 -69.929,-17.44 -125.566,-73.9 -156.082,-139.2 -30.519,-65.29 -38.789,-138.8 -39.707,-210.86 -4.058,-319.1 126.383,-622.67 254.41,-914.99" /><path
         id="path92"
         style="fill:#ffffff;fill-opacity:1;fill-rule:nonzero;stroke:none"
         d="m 977.602,2182.39 c -0.321,-0.58 -93.961,-170.87 -93.961,-494.39 0,-189.2 32.031,-430.8 133.419,-721.422 l 9.44,3.293 C 925.469,1259.49 893.645,1499.93 893.641,1688 c 0.004,160.79 23.265,283.31 46.484,365.58 11.609,41.14 23.211,72.2 31.887,92.95 4.34,10.38 7.945,18.17 10.461,23.35 1.254,2.59 2.238,4.53 2.902,5.81 0.664,1.28 0.988,1.87 0.988,1.87 l -8.758,4.83" /><path
         id="path94"
         style="fill:#ffffff;fill-opacity:1;fill-rule:nonzero;stroke:none"
         d="m 818.918,1989.39 c -0.098,-0.32 -7.266,-19.6 -7.289,-43.38 0,-16.86 3.656,-36.26 16.703,-52.26 13.043,-16.01 35.227,-27.92 70.238,-30.55 2.754,-0.21 5.157,1.85 5.368,4.61 0.207,2.75 -1.852,5.15 -4.606,5.36 -33.219,2.58 -52.195,13.41 -63.254,26.91 -11.058,13.52 -14.449,30.43 -14.449,45.93 0,10.88 1.68,20.94 3.363,28.24 0.84,3.64 1.68,6.6 2.305,8.63 0.312,1.01 0.57,1.79 0.746,2.3 l 0.254,0.74 c 0.961,2.59 -0.363,5.46 -2.953,6.42 -2.59,0.96 -5.465,-0.37 -6.426,-2.96" /><path
         id="path96"
         style="fill:#ffffff;fill-opacity:1;fill-rule:nonzero;stroke:none"
         d="m 1021.56,2105.57 0.17,-0.65 c 0.8,-3.16 4.14,-17.63 4.13,-35.09 0.02,-17.08 -3.23,-36.82 -14.4,-51.85 -11.18,-14.98 -30.136,-26.22 -64.472,-26.31 -8.23,0 -17.324,0.67 -27.359,2.12 -2.734,0.4 -5.27,-1.5 -5.664,-4.23 -0.399,-2.73 1.496,-5.27 4.23,-5.67 10.453,-1.51 20.024,-2.22 28.793,-2.22 36.473,-0.09 59.452,12.59 72.512,30.36 13.06,17.71 16.34,39.55 16.36,57.8 -0.01,21.38 -4.59,38.11 -4.65,38.37 -0.73,2.67 -3.48,4.23 -6.14,3.51 -2.66,-0.73 -4.23,-3.48 -3.51,-6.14" /><path
         id="path98"
         style="fill:#ffffff;fill-opacity:1;fill-rule:nonzero;stroke:none"
         d="m 957.824,1765.64 0.172,-0.8 c 0.824,-3.87 4.219,-21.18 4.211,-41.08 0.027,-16.77 -2.473,-35.32 -10.312,-49.01 -3.918,-6.87 -9.067,-12.54 -15.961,-16.59 -6.899,-4.03 -15.649,-6.51 -27.059,-6.51 -5.621,0 -11.883,0.61 -18.824,1.95 -2.711,0.52 -5.336,-1.26 -5.86,-3.97 -0.523,-2.71 1.25,-5.33 3.965,-5.85 7.485,-1.45 14.375,-2.13 20.719,-2.13 12.855,-0.01 23.527,2.84 32.113,7.88 12.918,7.57 20.774,19.78 25.289,33.07 4.539,13.31 5.922,27.88 5.93,41.16 -0.008,24.01 -4.594,43.9 -4.637,44.12 -0.621,2.69 -3.304,4.37 -5.996,3.75 -2.691,-0.61 -4.371,-3.3 -3.75,-5.99" /><g
         id="g100"><g
           clip-path="url(#clipPath106)"
           id="g102"><path
             id="path108"
             style="fill:#53a098;fill-opacity:1;fill-rule:nonzero;stroke:none"
             d="m 339.645,326.539 h 87.4063 v 52.9414 H 339.645 Z" /></g></g><path
         id="path110"
         style="fill:#53a098;fill-opacity:1;fill-rule:nonzero;stroke:none"
         d="m 529.406,320.262 c -37.695,0 -72.824,2.297 -102.355,6.277 -22.762,16.402 -43.852,34.051 -63.305,52.941 32.481,12.149 94.496,20.372 165.66,20.372 104.805,0 189.766,-17.821 189.766,-39.801 0,-21.969 -84.961,-39.789 -189.766,-39.789" /><g
         id="g112"><g
           clip-path="url(#clipPath118)"
           id="g114"><g
             clip-path="url(#clipPath124)"
             id="g120"><path
               id="path126"
               style="fill:#40bfc7;fill-opacity:1;fill-rule:nonzero;stroke:none"
               d="m 544.629,497.082 c 0,0 -104.344,566.088 -339.125,566.088 -62.711,0 -280.0626,-138.248 89.199,-298.4 C 499.27,676.059 544.629,497.082 544.629,497.082" /><path
               id="path128"
               style="fill:#40bfc7;fill-opacity:1;fill-rule:nonzero;stroke:none"
               d="M 544.629,497.082 C 521.633,599.5 533.434,1055.97 844.926,1063.17 907.617,1064.61 1157.53,937.059 791.188,770.352 564.105,667.012 552.793,547.18 544.629,497.082" /><path
               id="path130"
               style="fill:#40bfc7;fill-opacity:1;fill-rule:nonzero;stroke:none"
               d="m 544.629,497.082 c 0,0 -92.324,389.578 -229.91,573.318 -137.59,183.74 216.664,278.3 269.64,-7.23 14.68,-79.1 9.051,-177.6 -8.429,-283.049 C 544.965,593.398 544.629,497.082 544.629,497.082" /><path
               id="path132"
               style="fill:#9dddf5;fill-opacity:1;fill-rule:nonzero;stroke:none"
               d="m 844.926,1063.17 c -134.813,-3.12 -213.422,-90.42 -257.434,-196.729 7.356,72.52 7.449,139.709 -3.133,196.729 -52.976,285.53 -407.23,190.97 -269.64,7.23 40.203,-53.7 76.508,-124.99 107.812,-198.978 -53.468,105.316 -125.289,191.748 -217.027,191.748 -62.711,0 -280.0626,-138.248 89.199,-298.4 204.567,-88.711 249.926,-267.688 249.926,-267.688 8.16,50.098 19.476,169.93 246.559,273.27 366.342,166.707 116.429,294.258 53.738,292.818" /><path
               id="path134"
               style="fill:#f0f9dd;fill-opacity:1;fill-rule:nonzero;stroke:none"
               d="m 544.629,497.082 c -4.047,49.297 -18.383,96.527 -37.699,140.949 -4.418,11.289 -10.114,22.02 -15.762,32.739 -2.867,5.339 -5.441,10.808 -8.359,16.101 l -9.438,15.52 c -6.262,10.359 -12.351,20.8 -19.816,30.371 -7.184,9.718 -13.657,19.968 -21.293,29.347 l -23.395,27.77 -5.84,6.941 -6.332,6.52 -12.656,13.051 c -16.379,17.918 -34.887,33.668 -52.926,50.039 -8.711,8.558 -18.597,15.718 -28.129,23.351 -9.648,7.481 -19.043,15.348 -28.597,23.071 -19.817,14.386 -40.071,28.328 -59.699,43.699 22.417,-10.391 44.738,-21.442 66.535,-33.481 10.441,-6.718 21.043,-13.269 31.394,-20.23 10.313,-7.008 21.145,-13.36 30.606,-21.559 19.316,-15.832 39.398,-30.953 56.441,-49.449 l 13.32,-13.293 6.661,-6.648 c 2.113,-2.332 4.043,-4.809 6.054,-7.219 l 23.914,-29.121 c 30.266,-40.09 55.348,-84.34 72.356,-131.559 16.636,-47.121 26.875,-97.363 22.66,-146.91" /><path
               id="path136"
               style="fill:#f0f9dd;fill-opacity:1;fill-rule:nonzero;stroke:none"
               d="m 429.809,1149.11 c 29.992,-44.19 51.714,-93.65 69.562,-144 17.672,-50.52 30.809,-102.622 39.93,-155.36 2.152,-13.199 3.82,-26.48 5.754,-39.73 l 2.761,-19.872 1.672,-19.988 3.262,-39.961 1.078,-40.078 0.488,-20.012 c 0.079,-6.668 -0.367,-13.347 -0.543,-20.019 l -1.484,-39.981 c -1.625,-26.597 -4.871,-53.109 -8.031,-79.48 -1.192,26.66 -0.758,53.152 -1.824,79.613 -1.657,26.438 -1.774,52.86 -4.481,79.149 l -3.187,39.418 -4.614,39.261 c -1.445,13.09 -3.136,26.141 -5.289,39.129 -2.054,13 -3.843,26.039 -6.113,39 -9.297,51.789 -21.035,103.11 -35.543,153.742 -14.758,50.549 -31.516,100.649 -53.398,149.169" /><path
               id="path138"
               style="fill:#f0f9dd;fill-opacity:1;fill-rule:nonzero;stroke:none"
               d="m 836.441,981.211 c -45.5,-20.902 -86.351,-49.27 -122.601,-82.152 -36.035,-33.11 -67.41,-71.09 -91.992,-113.387 -24.403,-42.383 -42.805,-88.32 -54.77,-136.192 -12.351,-47.8 -19.269,-97.191 -22.355,-147.109 -3.301,49.899 -0.618,100.508 9.047,150.117 9.543,49.614 26.816,98.071 51.71,142.543 25.063,44.301 57.696,84.739 97.227,116.918 39.426,31.903 84.641,57.781 133.734,69.262" /></g></g></g><path
         id="path140"
         style="fill:#f14a7b;fill-opacity:1;fill-rule:nonzero;stroke:none"
         d="m 642.457,368.711 c 0,15.73 -50.617,28.469 -113.051,28.469 -62.437,0 -113.047,-12.739 -113.047,-28.469 0,-15.723 50.61,-28.469 113.047,-28.469 62.434,0 113.051,12.746 113.051,28.469" /><path
         id="path142"
         style="fill:#f14a7b;fill-opacity:1;fill-rule:nonzero;stroke:none"
         d="M 642.457,368.711 H 416.359 L 361.172,647.16 H 697.641 L 642.457,368.711" /><path
         id="path144"
         style="fill:#f14a7b;fill-opacity:1;fill-rule:nonzero;stroke:none"
         d="M 707.719,594.551 H 351.094 v 71.98 h 356.625 v -71.98" /><path
         id="path146"
         style="fill:#f48063;fill-opacity:1;fill-rule:nonzero;stroke:none"
         d="M 707.719,666.531 H 351.094 v -71.98 h 20.508 l 44.757,-225.84 c 0,-15.723 50.61,-28.461 113.047,-28.461 62.434,0 113.051,12.738 113.051,28.461 l 44.754,225.84 h 20.508 v 71.98" /><path
         id="path148"
         style="fill:#53a098;fill-opacity:1;fill-rule:nonzero;stroke:none"
         d="m 4049.5,544.891 c -5.6,0 -11.13,0.05 -16.61,0.148 25.39,30.231 39.59,56.16 45.85,78.973 90.91,-2.953 160.51,-19.442 160.51,-39.332 0,-21.969 -84.96,-39.789 -189.75,-39.789" /><g
         id="g150"><g
           clip-path="url(#clipPath156)"
           id="g152"><path
             id="path158"
             style="fill:#40bfc7;fill-opacity:1;fill-rule:nonzero;stroke:none"
             d="m 4064.72,721.711 c 0,0 -104.35,566.089 -339.13,566.089 -62.7,0 -280.07,-138.26 89.2,-298.402 204.56,-88.707 249.93,-267.687 249.93,-267.687" /><path
             id="path160"
             style="fill:#40bfc7;fill-opacity:1;fill-rule:nonzero;stroke:none"
             d="m 4064.72,721.711 c -23.01,102.418 -11.2,558.889 300.29,566.089 62.7,1.44 312.61,-126.11 -53.74,-292.831 -227.08,-103.34 -238.39,-223.168 -246.55,-273.258" /><path
             id="path162"
             style="fill:#40bfc7;fill-opacity:1;fill-rule:nonzero;stroke:none"
             d="m 4064.72,721.711 c 0,0 -92.32,389.569 -229.91,573.319 -137.6,183.74 216.66,278.29 269.64,-7.23 14.68,-79.1 9.05,-177.6 -8.44,-283.05 -30.96,-186.719 -31.29,-283.039 -31.29,-283.039" /><path
             id="path164"
             style="fill:#84b5ce;fill-opacity:1;fill-rule:nonzero;stroke:none"
             d="m 4365.01,1287.8 c -134.81,-3.12 -213.41,-90.43 -257.43,-196.73 7.36,72.52 7.44,139.71 -3.13,196.73 -52.98,285.52 -407.24,190.97 -269.64,7.23 40.2,-53.7 76.5,-124.99 107.8,-198.98 -53.45,105.31 -125.28,191.75 -217.02,191.75 -62.7,0 -280.07,-138.26 89.2,-298.402 204.56,-88.707 249.93,-267.687 249.93,-267.687 8.16,50.09 19.47,169.918 246.55,273.258 366.35,166.721 116.44,294.271 53.74,292.831" /><path
             id="path166"
             style="fill:#f0f9dd;fill-opacity:1;fill-rule:nonzero;stroke:none"
             d="m 4064.72,721.711 c -4.05,49.301 -18.39,96.519 -37.7,140.937 -4.43,11.301 -10.11,22.032 -15.76,32.743 -2.88,5.347 -5.44,10.82 -8.36,16.109 l -9.45,15.52 c -6.25,10.359 -12.34,20.8 -19.81,30.371 -7.18,9.718 -13.65,19.968 -21.29,29.347 l -23.39,27.772 -5.85,6.94 -6.33,6.52 -12.65,13.05 c -16.38,17.92 -34.89,33.67 -52.92,50.04 -8.71,8.56 -18.61,15.72 -28.14,23.35 -9.65,7.48 -19.04,15.35 -28.59,23.06 -19.82,14.4 -40.07,28.33 -59.71,43.71 22.42,-10.39 44.75,-21.44 66.54,-33.48 10.44,-6.72 21.05,-13.28 31.39,-20.24 10.31,-7 21.15,-13.35 30.62,-21.55 19.3,-15.84 39.39,-30.95 56.43,-49.45 l 13.32,-13.3 6.66,-6.64 c 2.12,-2.33 4.04,-4.82 6.06,-7.22 l 23.91,-29.12 c 30.27,-40.09 55.35,-84.34 72.36,-131.559 16.64,-47.121 26.87,-97.359 22.66,-146.91" /><path
             id="path168"
             style="fill:#f0f9dd;fill-opacity:1;fill-rule:nonzero;stroke:none"
             d="m 3949.9,1373.73 c 29.99,-44.19 51.71,-93.64 69.56,-143.99 17.66,-50.52 30.81,-102.62 39.93,-155.36 2.15,-13.2 3.82,-26.49 5.75,-39.73 l 2.77,-19.87 1.67,-19.991 3.26,-39.969 1.07,-40.07 0.49,-20.012 c 0.08,-6.668 -0.36,-13.347 -0.54,-20.019 l -1.48,-39.981 c -1.63,-26.597 -4.87,-53.109 -8.04,-79.476 -1.19,26.66 -0.75,53.148 -1.83,79.609 -1.65,26.438 -1.76,52.859 -4.47,79.149 l -3.19,39.421 -4.61,39.258 c -1.45,13.091 -3.14,26.141 -5.28,39.131 -2.06,13 -3.85,26.04 -6.12,38.99 -9.29,51.8 -21.04,103.12 -35.54,153.74 -14.77,50.56 -31.52,100.66 -53.4,149.17" /><path
             id="path170"
             style="fill:#f0f9dd;fill-opacity:1;fill-rule:nonzero;stroke:none"
             d="m 4356.53,1205.83 c -45.5,-20.89 -86.36,-49.26 -122.6,-82.14 -36.03,-33.11 -67.41,-71.09 -92,-113.4 -24.4,-42.368 -42.79,-88.31 -54.76,-136.181 -12.36,-47.8 -19.27,-97.187 -22.36,-147.109 -3.3,49.898 -0.62,100.5 9.05,150.109 9.54,49.621 26.81,98.082 51.7,142.551 25.07,44.3 57.71,84.74 97.23,116.92 39.43,31.9 84.65,57.78 133.74,69.25" /></g></g><path
         id="path172"
         style="fill:#f14a7b;fill-opacity:1;fill-rule:nonzero;stroke:none"
         d="m 4162.54,593.332 c 0,15.738 -50.61,28.477 -113.04,28.477 -62.44,0 -113.06,-12.739 -113.06,-28.477 0,-15.711 50.62,-28.461 113.06,-28.461 62.43,0 113.04,12.75 113.04,28.461" /><path
         id="path174"
         style="fill:#f14a7b;fill-opacity:1;fill-rule:nonzero;stroke:none"
         d="m 4162.54,593.332 h -226.1 l -55.18,278.457 h 336.47 l -55.19,-278.457" /><path
         id="path176"
         style="fill:#f14a7b;fill-opacity:1;fill-rule:nonzero;stroke:none"
         d="m 4227.81,819.18 h -356.62 v 71.98 h 356.62 v -71.98" /><path
         id="path178"
         style="fill:#f48063;fill-opacity:1;fill-rule:nonzero;stroke:none"
         d="m 4227.81,891.16 h -356.62 v -71.98 h 20.49 l 44.76,-225.848 c 0,-15.711 50.62,-28.453 113.06,-28.453 62.43,0 113.04,12.742 113.04,28.453 l 44.76,225.848 h 20.51 v 71.98" /><path
         id="path180"
         style="fill:#636493;fill-opacity:1;fill-rule:nonzero;stroke:none"
         d="m 819.793,111.469 c 0,-31.3987 27.531,-55.6799 58.687,-51.7698 L 3780.62,424.59 c 27.77,3.5 47.84,28.289 45.48,56.18 l -3.37,39.851 c -2.52,29.82 -29.56,51.418 -59.21,47.277 L 864.758,163.148 C 838.977,159.551 819.793,137.5 819.793,111.469" /><path
         id="path182"
         style="fill:#8180bf;fill-opacity:1;fill-rule:nonzero;stroke:none"
         d="m 1119.61,1899.85 -84.33,-40.07 c -43.46,-20.65 -71.147,-64.46 -71.147,-112.58 v -588.09 l 155.477,-2.05 v 742.79" /><path
         id="path184"
         style="fill:#8180bf;fill-opacity:1;fill-rule:nonzero;stroke:none"
         d="m 2256.55,1878.01 -127.75,-33.75 19.12,-229.3 81.89,49.67 26.74,213.38" /><path
         id="path186"
         style="fill:#9d8bcd;fill-opacity:1;fill-rule:nonzero;stroke:none"
         d="m 2187.04,1159.11 v 598.57 c 0,0 -7.28,127.29 105.55,124.68 0,0 1048.21,-78.06 1044.56,-202.3 -3.63,-124.24 -20.92,-488.2 -20.92,-488.2 0,0 -797.98,-203.821 -1129.19,-32.75" /><path
         id="path188"
         style="fill:#9d8bcd;fill-opacity:1;fill-rule:nonzero;stroke:none"
         d="m 2191.59,1177.3 -4.13,596.9 c 0,0 21.13,99.93 -106,108.21 -127.13,8.26 -591.12,38.14 -924.74,23.58 0,0 -83.4,20.17 -83.4,-131.79 0,-134.66 0,-615.09 0,-615.09 0,0 908.54,-43.68 1118.27,18.19" /><path
         id="path190"
         style="fill:#8180bf;fill-opacity:1;fill-rule:nonzero;stroke:none"
         d="m 3612.94,1095.38 310.19,81.92 V 568.391 c 0,-53.301 -39.87,-98.172 -92.8,-104.442 L 1022.36,129.102 V 725.84 l 2591.4,143.359 -0.82,226.181" /><path
         id="path192"
         style="fill:#9d8bcd;fill-opacity:1;fill-rule:nonzero;stroke:none"
         d="m 2568.5,811.379 v 237.481 l -1313.2,46.52 V 736.309 l 1313.2,75.07" /><path
         id="path194"
         style="fill:#a897d3;fill-opacity:1;fill-rule:nonzero;stroke:none"
         d="m 2568.5,1048.86 c 0,0 -144.88,102.97 -376.91,128.44 l -936.29,32.76 v -129.21 l 1313.2,-31.99" /><path
         id="path196"
         style="fill:#9d8bcd;fill-opacity:1;fill-rule:nonzero;stroke:none"
         d="m 2568.5,1048.86 1044.44,46.52 0.82,-226.181 -1045.26,-57.82 v 237.481" /><path
         id="path198"
         style="fill:#a897d3;fill-opacity:1;fill-rule:nonzero;stroke:none"
         d="m 2325.12,1152.79 c 0,0 436.98,96.39 991.11,39.07 l 296.71,-96.48 -1044.44,-46.52 -243.38,103.93" /><path
         id="path200"
         style="fill:#9887cb;fill-opacity:1;fill-rule:nonzero;stroke:none"
         d="m 3923.13,1177.3 c 0,0 61.88,16.58 43.68,84.73 -18.2,68.14 -61.87,89.98 -232.94,104.54 -171.06,14.55 -408.61,21.38 -408.61,21.38 0,0 -151.17,25.23 -159.16,-79.14 v -101.94 c 0,0 333.19,-98.79 446.84,-111.49 l 310.19,81.92" /><path
         id="path202"
         style="fill:#8180bf;fill-opacity:1;fill-rule:nonzero;stroke:none"
         d="m 1255.3,1095.38 -542.144,22.06 V 182.129 c 0,-48.16 41.797,-85.6798 89.688,-80.5 l 452.456,55.242 v 938.509" /><path
         id="path204"
         style="fill:#9887cb;fill-opacity:1;fill-rule:nonzero;stroke:none"
         d="m 1255.3,1095.38 v 112.27 c 0,21.71 -16.51,41.02 -41.19,48.19 -68.67,19.99 -268.071,44.79 -430.54,50.13 0,0 -84.898,13.14 -92.914,-74.99 -9.703,-106.6 22.5,-113.54 22.5,-113.54 l 542.144,-22.06" /><path
         id="path206"
         style="fill:#9887cb;fill-opacity:1;fill-rule:nonzero;stroke:none"
         d="m 1231.69,1247.84 -56.24,91.13 c -9.31,15.09 -25.15,24.95 -42.8,26.64 l -289.298,10.63 c -15.731,1.51 -31.379,-3.62 -43.157,-14.16 l -90.359,-80.76 c 0,0 381.774,-53.93 521.854,-33.48" /><path
         id="path208"
         style="fill:#6b6585;fill-opacity:1;fill-rule:nonzero;stroke:none"
         d="m 1318.36,1198.73 c 205.23,-7.04 710.34,-24.55 810.01,-29.79 62.71,-3.28 111.5,-9.38 144.55,-14.64 16.52,-2.63 29.12,-5.05 37.55,-6.8 4.21,-0.88 7.39,-1.59 9.5,-2.08 1.05,-0.25 1.84,-0.43 2.35,-0.56 l 0.74,-0.18 c 1.07,-0.28 2.16,-0.33 3.26,-0.17 0.02,0 6.5,0.94 18.49,2.59 83.84,11.56 435.55,57.82 684.69,57.8 50.54,0 96.83,-1.9 135.65,-6.34 4.59,-0.53 8.74,2.77 9.26,7.36 0.53,4.59 -2.77,8.74 -7.36,9.26 -39.76,4.55 -86.59,6.45 -137.55,6.46 -286.81,-0.03 -705.37,-60.56 -705.57,-60.57 l 1.19,-8.28 2.07,8.1 c -0.46,0.12 -71.27,18.13 -197.95,24.76 -100.12,5.26 -604.98,22.76 -810.31,29.81 -4.62,0.15 -8.49,-3.46 -8.65,-8.08 -0.16,-4.62 3.46,-8.49 8.08,-8.65" /><path
         id="path210"
         style="fill:#6b6585;fill-opacity:1;fill-rule:nonzero;stroke:none"
         d="M 1263.67,156.871 V 728.398 L 3605.4,860.352 V 713.84 c 0,-4.621 3.74,-8.371 8.36,-8.371 4.63,0 8.37,3.75 8.37,8.371 v 155.359 c 0,2.301 -0.95,4.5 -2.62,6.082 -1.67,1.578 -3.92,2.41 -6.22,2.278 L 1254.83,744.672 c -4.44,-0.25 -7.9,-3.91 -7.9,-8.363 V 156.871 c 0,-4.621 3.75,-8.371 8.37,-8.371 4.62,0 8.37,3.75 8.37,8.371" /><path
         id="path212"
         style="fill:#6b6585;fill-opacity:1;fill-rule:nonzero;stroke:none"
         d="m 2179.39,1730.85 3.83,-553.61 c 0.03,-4.62 3.8,-8.34 8.43,-8.31 4.62,0.03 8.34,3.81 8.3,8.43 l -3.83,553.61 c -0.03,4.62 -3.8,8.34 -8.42,8.31 -4.62,-0.03 -8.34,-3.8 -8.31,-8.43" /><path
         id="path214"
         style="fill:#6b6585;fill-opacity:1;fill-rule:nonzero;stroke:none"
         d="m 2323.39,1144.6 c 0.01,0 1.4,-0.29 4.1,-0.92 18.88,-4.31 99.61,-24.35 162.92,-60.23 4.02,-2.28 9.12,-0.87 11.4,3.15 2.27,4.03 0.86,9.13 -3.16,11.41 -75.59,42.71 -171.39,62.83 -171.8,62.96 -4.52,0.96 -8.96,-1.93 -9.91,-6.45 -0.96,-4.52 1.93,-8.96 6.45,-9.92" /><path
         id="path216"
         style="fill:#6b6585;fill-opacity:1;fill-rule:nonzero;stroke:none"
         d="m 3614.54,1103.59 c -0.03,0 -10.92,2.13 -29.47,5.93 -55.63,11.4 -179.74,37.87 -281.05,66.74 -4.45,1.27 -9.08,-1.31 -10.34,-5.75 -1.27,-4.44 1.31,-9.07 5.75,-10.34 136.16,-38.79 311.8,-72.98 311.91,-73.01 4.54,-0.88 8.93,2.08 9.82,6.62 0.88,4.53 -2.08,8.92 -6.62,9.81" /><path
         id="path218"
         style="fill:#6b6585;fill-opacity:1;fill-rule:nonzero;stroke:none"
         d="m 2339.1,1068.81 -794.14,13.36 c -4.62,0.08 -8.43,-3.61 -8.51,-8.23 -0.07,-4.62 3.61,-8.42 8.23,-8.5 l 794.14,-13.36 c 4.62,-0.08 8.43,3.6 8.51,8.22 0.07,4.62 -3.61,8.43 -8.23,8.51" /><path
         id="path220"
         style="fill:#6b6585;fill-opacity:1;fill-rule:nonzero;stroke:none"
         d="m 3508.61,1099.09 c -0.15,0 -88.8,0 -210.35,-9.36 -4.61,-0.35 -8.06,-4.37 -7.7,-8.98 0.35,-4.61 4.38,-8.06 8.98,-7.7 60.47,4.65 112.77,6.98 149.94,8.15 18.59,0.58 33.39,0.87 43.53,1.01 10.15,0.15 15.58,0.15 15.6,0.15 4.62,0 8.37,3.75 8.37,8.37 0,4.62 -3.75,8.36 -8.37,8.36" /><path
         id="path222"
         style="fill:#355050;fill-opacity:1;fill-rule:nonzero;stroke:none"
         d="m 3530.68,280.18 c 0,0 320.91,88.64 460.24,220.761 139.34,132.129 91.51,192.957 41.39,248.868 -50.13,55.902 -178.87,14.332 -237.86,-6.829 -58.99,-21.16 -397,-130.308 -446.35,-127.55 -49.34,2.769 -204.64,69.742 -244.19,65.859 -39.55,-3.867 -330.68,-178.23 -330.68,-178.23 0,0 -39.64,-136.52 7.32,-232.739 l 750.13,9.86" /><path
         id="path224"
         style="fill:#243a3b;fill-opacity:1;fill-rule:nonzero;stroke:none"
         d="m 3443.33,413.922 c -8.25,7.976 -16.02,17.84 -23.43,23.898 -0.49,0.399 -0.99,0.801 -1.48,1.2 -27.99,29.46 -52.82,59.121 -65.39,82.761 -5.56,10.457 -13.7,18.86 -23.98,25.379 75.13,24.711 153.42,39.168 230.96,56.012 43,9.328 85.4,19.828 127.12,33.789 18.58,6.211 49.62,12.098 76.19,12.098 8.19,0 15.96,-0.559 22.81,-1.848 -44.93,-24.25 -106.31,-54.512 -156.19,-86.301 -51.52,-32.828 -94.6,-75.648 -141.18,-114.808 -12.46,-10.493 -28.23,-26.543 -45.43,-32.18" /><path
         id="path226"
         style="fill:#f9b097;fill-opacity:1;fill-rule:nonzero;stroke:none"
         d="m 3470.64,307.32 c 0,0 43.84,2.321 115.14,3.289 56.71,0.77 102.9,14.832 200.29,23.063 50.91,4.289 104.31,18.207 115.71,-5.383 8.06,-16.66 -17.18,-85.41 -71.46,-95.09 -25.12,-4.48 -51.23,-0.808 -79.04,2.86 -22.17,2.921 -45.42,5.851 -70.1,4.652 -79.62,-3.871 -128.41,-59.32 -200.67,-58.391 l -9.87,125" /><path
         id="path228"
         style="fill:#355050;fill-opacity:1;fill-rule:nonzero;stroke:none"
         d="m 3508.47,174.09 c 0,0 66.51,73.199 44.3,139.808 0,0 -160.26,133.661 -199.74,207.883 -39.47,74.207 -208.2,44.481 -357,-20.84 -148.79,-65.32 -272.15,-218.293 -188.26,-275.043 83.89,-56.75 302.65,-118.429 457.26,-17.269 0,0 60.86,-51.809 243.44,-34.539" /><path
         id="path230"
         style="fill:#939e9d;fill-opacity:1;fill-rule:nonzero;stroke:none"
         d="m 2951.88,168.059 c -58.76,13.41 -109.39,35.011 -141.59,56.16 32.2,-21.149 82.83,-42.75 141.59,-56.16 m -144.31,57.98 v 0 0" /><path
         id="path232"
         style="fill:#859998;fill-opacity:1;fill-rule:nonzero;stroke:none"
         d="m 2780.83,270.32 h -0.28 c -4.28,8.758 -7.84,17.871 -10.78,27.18 v 0 c 2.94,-9.309 6.5,-18.422 10.78,-27.18 h 0.27 0.01" /><path
         id="path234"
         style="fill:#5f6695;fill-opacity:1;fill-rule:nonzero;stroke:none"
         d="m 2760.98,336.43 c -2.42,16.48 -3.39,33.011 -3.38,48.922 -0.01,-15.911 0.96,-32.442 3.38,-48.922 v 0 m 12.25,166.629 v 0 0 m 0.01,0.011 c 0,0 0.01,0.012 0.02,0.012 -0.01,0 -0.02,-0.012 -0.02,-0.012 m 0.02,0.012 c 0.01,0.008 0.02,0.008 0.03,0.02 -0.01,-0.012 -0.02,-0.012 -0.03,-0.02 m 0.03,0.02 c 0.02,0.007 0.05,0.027 0.08,0.039 -0.03,-0.012 -0.06,-0.032 -0.08,-0.039 m 0.08,0.046 c 1.91,1.141 22.71,13.582 53.09,31.403 -30.38,-17.821 -51.18,-30.262 -53.09,-31.403" /><path
         id="path236"
         style="fill:#243a3b;fill-opacity:1;fill-rule:nonzero;stroke:none"
         d="m 2780.55,270.32 c -4.28,8.758 -7.84,17.871 -10.78,27.18 -4.01,12.719 -6.86,25.801 -8.79,38.93 -2.42,16.48 -3.39,33.011 -3.38,48.922 0,63.878 15.63,117.707 15.63,117.707 v 0 0 c 0,0 0,0 0.01,0.011 0,0 0.01,0.012 0.02,0.012 v 0 c 0.01,0.008 0.02,0.008 0.03,0.02 v 0 c 0.02,0.007 0.05,0.027 0.08,0.039 v 0.007 c 1.91,1.141 22.71,13.582 53.09,31.403 0.16,0.09 0.32,0.187 0.48,0.281 4.65,-28.684 11.2,-56.961 20.64,-84.531 3.89,-11.36 8.95,-23.91 15.06,-36.922 -52.09,-48.137 -85.49,-102.027 -81.82,-143.059 h -0.27" /><path
         id="path238"
         style="fill:#243a3b;fill-opacity:1;fill-rule:nonzero;stroke:none"
         d="m 3067.57,154.629 c -40.06,0 -79.43,5.152 -115.69,13.43 -58.76,13.41 -109.39,35.011 -141.59,56.16 -0.24,0.16 -0.46,0.312 -0.7,0.461 -0.61,0.41 -1.22,0.82 -1.82,1.218 v 0 c -0.07,0.051 -0.13,0.09 -0.2,0.141 v 0 c -16.72,11.391 -25.03,26.672 -26.62,44.281 h -0.12 -0.01 c -3.67,41.032 29.73,94.922 81.82,143.059 30.13,-64.188 85.93,-139.707 154.86,-139.707 3.02,0 6.08,0.148 9.15,0.437 63.8,6.2 163.62,104.672 199.33,104.672 3.06,0 5.66,-0.73 7.72,-2.301 18.86,-14.421 35.48,-86.238 71.18,-114.8 43.05,-34.442 118.16,-45.891 172.41,-55.692 17.36,-3.129 34.28,-4.968 50.9,-5.406 -10.45,-16.25 -19.72,-26.48 -19.72,-26.48 -26.09,-2.473 -49.69,-3.532 -70.98,-3.532 -127.74,0 -172.46,38.071 -172.46,38.071 -60.04,-39.289 -129.73,-54.012 -197.46,-54.012" /><path
         id="path240"
         style="fill:#1e2f30;fill-opacity:1;fill-rule:nonzero;stroke:none"
         d="m 3530.98,209.66 c 0,0 -2.06,-0.148 -5.94,-0.308 -3.87,-0.153 -9.52,-0.313 -16.56,-0.313 -28.88,-0.008 -81.2,2.691 -130.61,18.891 -24.71,8.101 -48.66,19.55 -68.66,35.59 -19.99,16.05 -36.04,36.621 -45.21,63.25 -6.47,18.789 -13.02,31.96 -20.42,40.769 -7.34,8.813 -16.08,13.191 -25.43,13.133 -12.53,-0.09 -25.26,-6.953 -40.06,-16.942 -44.26,-30.121 -107.86,-91.242 -215.64,-111.511 -47.47,-8.918 -82.55,-12.289 -108.33,-12.289 -33.32,-0.02 -51.02,5.679 -59.95,11.73 -8.87,6.082 -9.68,12.121 -9.78,15.422 l 0.12,1.727 0.07,0.382 -0.09,0.02 0.09,-0.031 v 0.011 l -0.09,0.02 0.09,-0.031 c 0.62,2.23 -0.67,4.539 -2.89,5.16 -2.23,0.629 -4.54,-0.66 -5.16,-2.891 -0.08,-0.277 -0.51,-1.879 -0.51,-4.367 -0.1,-5.301 2.28,-14.922 13.48,-22.363 11.15,-7.457 30.4,-13.129 64.62,-13.149 26.5,0 62.04,3.442 109.87,12.43 73.48,13.789 126.99,46.289 167.34,75.129 20.17,14.422 37.09,27.922 51.46,37.672 14.36,9.82 26.18,15.59 35.36,15.5 6.81,-0.063 12.64,-2.692 19.03,-10.153 6.32,-7.457 12.64,-19.816 18.91,-38.097 9.71,-28.262 26.87,-50.211 47.89,-67.063 63.14,-50.468 160.41,-56.238 204.5,-56.316 14.33,0 23.04,0.637 23.12,0.648 2.31,0.172 4.04,2.18 3.87,4.481 -0.17,2.308 -2.18,4.031 -4.48,3.859" /><path
         id="path242"
         style="fill:#1e2f30;fill-opacity:1;fill-rule:nonzero;stroke:none"
         d="m 3541.97,328.582 c -19.69,16.957 -58.06,50.727 -95.51,87.828 -37.43,37.051 -73.99,77.649 -89.73,107.34 -8.69,16.34 -23.31,27.898 -41.85,35.211 -18.56,7.32 -41.11,10.57 -66.42,10.578 -71.89,-0.027 -166.38,-26.277 -254.11,-64.769 -2.12,-0.93 -3.08,-3.391 -2.15,-5.508 0.93,-2.121 3.4,-3.082 5.51,-2.153 86.93,38.192 180.83,64.102 250.75,64.063 24.59,0.008 46.17,-3.203 63.35,-10 17.19,-6.813 29.9,-17.051 37.53,-31.352 16.73,-31.379 53.55,-71.98 91.23,-109.351 37.67,-37.321 76.16,-71.188 95.94,-88.231 1.75,-1.5 4.4,-1.308 5.9,0.442 1.51,1.761 1.31,4.402 -0.44,5.902" /><path
         id="path244"
         style="fill:#1e2f30;fill-opacity:1;fill-rule:nonzero;stroke:none"
         d="m 3265.03,212.809 -0.51,0.019 c -2.94,0.121 -17.82,1.262 -35.93,11.293 -18.1,10.059 -39.54,28.938 -55.84,65.18 -0.95,2.097 -3.43,3.039 -5.53,2.097 -2.11,-0.949 -3.05,-3.429 -2.1,-5.527 18.08,-40.312 42.91,-60.871 63.28,-71.109 20.38,-10.262 36.19,-10.313 36.63,-10.321 2.31,0 4.19,1.879 4.19,4.188 0,2.312 -1.88,4.18 -4.19,4.18" /><path
         id="path246"
         style="fill:#f9b097;fill-opacity:1;fill-rule:nonzero;stroke:none"
         d="m 3309.45,205.289 c 0,0 29.6,-57.508 -15.63,-71.93 -55.54,-17.687 -95.44,-8.621 -92.54,9.481 2.9,18.09 7.27,55.922 57.72,82.238 50.45,26.32 50.45,-19.789 50.45,-19.789" /><path
         id="path248"
         style="fill:#1e2f30;fill-opacity:1;fill-rule:nonzero;stroke:none"
         d="m 3850.61,684.48 c -0.07,-0.039 -72.13,-34.121 -159.08,-84.949 -86.97,-50.859 -188.77,-118.32 -248.68,-185.742 -1.53,-1.73 -1.37,-4.367 0.35,-5.91 1.73,-1.527 4.38,-1.379 5.91,0.351 58.63,66.09 160.03,133.469 246.64,184.079 43.31,25.32 82.94,46.48 111.73,61.3 14.39,7.422 26.08,13.25 34.16,17.223 8.08,3.977 12.53,6.078 12.55,6.09 2.08,0.976 2.98,3.476 1.99,5.566 -0.99,2.082 -3.48,2.981 -5.57,1.992" /><path
         id="path250"
         style="fill:#222426;fill-opacity:1;fill-rule:nonzero;stroke:none"
         d="m 2888.07,1682.75 c 0,0 -160.42,-232.82 -60.05,-396.3 l 203.96,-10.55 c 0,0 137.36,157.67 94.03,346.56 l -237.94,60.29" /><path
         id="path252"
         style="fill:#bdeaf8;fill-opacity:1;fill-rule:nonzero;stroke:none"
         d="m 2996.03,603.352 c 159.58,42.019 269,31.726 269,31.726 -14.8,44.863 -39.47,75.231 -70.56,131.57 -31.1,56.34 -44.57,127.891 0,226.582 44.57,98.68 -7.16,148.97 -50.24,293.22 -7.88,26.39 -37.71,56.48 -65.15,58.86 -53.32,4.62 -118.5,8.13 -118.5,8.13 0,0 -243.28,29.93 -269.6,-33.55 -26.32,-63.49 -65.79,-257.61 -19.73,-380.14 46.05,-122.531 32.68,-232.781 36.19,-307.988 2.89,-62.192 29.6,-145.141 65.79,-128.703 36.18,16.453 142.2,79.07 222.8,100.293" /><g
         id="g254"><g
           clip-path="url(#clipPath260)"
           id="g256"><path
             id="path262"
             style="fill:#6ca3b7;fill-opacity:1;fill-rule:nonzero;stroke:none"
             d="m 2688.78,499.969 c -0.21,1.679 -0.32,3.363 -0.32,5.051 0.01,7.171 1.87,14.66 5.87,22.66 6.95,13.98 20.72,29.211 40.58,44.031 29.75,22.289 72.84,43.629 124.89,61.258 52.05,17.66 113.05,31.691 178.86,39.941 42.12,5.289 82.92,7.789 121.21,7.789 68.79,0.02 129.53,-8.14 174.92,-22.461 22.68,-7.136 41.5,-15.816 55.47,-25.429 14.02,-9.61 23,-19.981 27.26,-30.297 l 23.18,9.617 c -6.77,16.25 -19.52,29.902 -36.24,41.383 -25.15,17.207 -59.7,30.008 -101.29,38.84 -41.58,8.789 -90.22,13.449 -143.3,13.449 -39.38,0 -81.2,-2.571 -124.34,-7.981 -102.7,-12.91 -194.11,-39.422 -260.76,-72.761 -33.33,-16.707 -60.51,-35.09 -79.95,-54.957 -9.7,-9.954 -17.48,-20.313 -22.93,-31.172 -5.45,-10.848 -8.53,-22.301 -8.53,-33.91 0,-2.731 0.17,-5.45 0.51,-8.168 l 24.91,3.117" /><path
             id="path264"
             style="fill:#6ca3b7;fill-opacity:1;fill-rule:nonzero;stroke:none"
             d="m 2640.4,581.66 c -0.21,1.68 -0.32,3.36 -0.32,5.051 0.01,7.168 1.87,14.66 5.87,22.66 6.95,13.969 20.72,29.211 40.58,44.027 29.75,22.282 72.84,43.622 124.88,61.25 52.05,17.661 113.06,31.692 178.86,39.942 42.12,5.289 82.93,7.789 121.22,7.789 68.79,0.019 129.53,-8.141 174.92,-22.457 22.68,-7.141 41.5,-15.82 55.47,-25.434 14.03,-9.609 23,-19.976 27.26,-30.297 l 23.18,9.618 c -6.77,16.25 -19.52,29.902 -36.24,41.382 -25.15,17.207 -59.7,30.008 -101.29,38.84 -41.58,8.789 -90.22,13.449 -143.3,13.449 -39.39,0 -81.21,-2.57 -124.35,-7.98 -102.69,-12.91 -194.1,-39.422 -260.75,-72.762 -33.33,-16.707 -60.51,-35.09 -79.94,-54.957 -9.71,-9.949 -17.49,-20.301 -22.94,-31.172 -5.45,-10.839 -8.53,-22.289 -8.53,-33.898 0,-2.731 0.17,-5.449 0.51,-8.172 l 24.91,3.121" /><path
             id="path266"
             style="fill:#6ca3b7;fill-opacity:1;fill-rule:nonzero;stroke:none"
             d="m 2592.02,663.34 c -0.21,1.68 -0.32,3.359 -0.32,5.051 0.01,7.179 1.87,14.66 5.87,22.66 6.95,13.969 20.72,29.211 40.58,44.027 29.75,22.281 72.85,43.633 124.89,61.25 52.05,17.664 113.05,31.692 178.85,39.942 42.13,5.289 82.94,7.789 121.23,7.789 68.79,0.019 129.53,-8.137 174.91,-22.457 22.69,-7.141 41.5,-15.821 55.47,-25.43 14.03,-9.613 23,-19.981 27.26,-30.301 l 23.18,9.617 c -6.77,16.25 -19.52,29.903 -36.23,41.383 -25.16,17.207 -59.7,30.008 -101.29,38.84 -41.58,8.789 -90.22,13.449 -143.3,13.449 -39.39,0 -81.21,-2.57 -124.36,-7.98 -102.69,-12.91 -194.1,-39.418 -260.74,-72.758 -33.33,-16.711 -60.52,-35.09 -79.95,-54.953 -9.71,-9.949 -17.49,-20.297 -22.94,-31.168 -5.45,-10.852 -8.53,-22.289 -8.53,-33.91 0,-2.731 0.17,-5.45 0.51,-8.172 l 24.91,3.121" /><path
             id="path268"
             style="fill:#6ca3b7;fill-opacity:1;fill-rule:nonzero;stroke:none"
             d="m 2543.64,745.02 c -0.21,1.679 -0.32,3.359 -0.32,5.05 0.01,7.18 1.87,14.668 5.87,22.672 6.95,13.969 20.72,29.199 40.58,44.02 29.75,22.289 72.85,43.629 124.89,61.258 52.05,17.66 113.05,31.691 178.85,39.941 42.12,5.277 82.92,7.789 121.2,7.789 68.8,0.02 129.54,-8.141 174.93,-22.461 22.69,-7.141 41.51,-15.828 55.48,-25.43 14.03,-9.609 23,-19.988 27.26,-30.3 l 23.18,9.621 c -6.77,16.25 -19.52,29.902 -36.24,41.379 -25.15,17.203 -59.7,30.011 -101.29,38.839 -41.59,8.782 -90.23,13.454 -143.32,13.454 -39.38,0 -81.19,-2.571 -124.32,-7.981 -102.7,-12.91 -194.11,-39.43 -260.75,-72.762 -33.33,-16.711 -60.52,-35.089 -79.95,-54.961 -9.71,-9.949 -17.49,-20.296 -22.94,-31.168 -5.45,-10.839 -8.53,-22.289 -8.53,-33.91 0,-2.718 0.17,-5.449 0.51,-8.172 l 24.91,3.122" /><path
             id="path270"
             style="fill:#6ca3b7;fill-opacity:1;fill-rule:nonzero;stroke:none"
             d="m 2507.39,832.281 c -0.21,1.668 -0.31,3.348 -0.31,5.039 0,7.168 1.86,14.66 5.86,22.66 6.95,13.981 20.72,29.211 40.58,44.032 29.75,22.277 72.85,43.629 124.89,61.258 52.05,17.652 113.06,31.691 178.86,39.94 42.13,5.28 82.94,7.79 121.23,7.79 68.79,0.02 129.52,-8.14 174.9,-22.461 22.69,-7.141 41.5,-15.82 55.48,-25.43 14.02,-9.609 22.99,-19.98 27.25,-30.3 l 23.18,9.632 c -6.77,16.239 -19.52,29.891 -36.23,41.368 -25.16,17.201 -59.7,30.011 -101.28,38.841 -41.59,8.79 -90.22,13.45 -143.3,13.45 -39.39,0 -81.21,-2.57 -124.35,-7.99 -102.71,-12.9 -194.12,-39.419 -260.76,-72.758 -33.33,-16.711 -60.52,-35.09 -79.95,-54.954 -9.71,-9.949 -17.49,-20.296 -22.94,-31.168 -5.44,-10.851 -8.53,-22.289 -8.53,-33.91 0,-2.718 0.17,-5.449 0.51,-8.16 l 24.91,3.121" /><path
             id="path272"
             style="fill:#6ca3b7;fill-opacity:1;fill-rule:nonzero;stroke:none"
             d="m 2524.81,967.02 -0.08,2.429 c 0.01,7.262 1.93,14.621 6.04,22.403 7.14,13.588 21.35,28.138 41.9,41.918 30.77,20.72 75.36,39.69 128.97,54.27 53.62,14.61 116.28,24.92 183.49,28.97 20.78,1.25 41.21,1.86 61.14,1.86 83.34,0.01 158.03,-10.65 213.63,-28.63 27.79,-8.95 50.78,-19.76 67.55,-31.54 16.85,-11.79 27.14,-24.36 31.2,-36.42 l 23.76,8.11 c -6.54,19.02 -20.98,35.12 -40.55,48.86 -29.45,20.6 -71.19,36.47 -121.71,47.57 -50.5,11.05 -109.77,17.14 -173.88,17.15 -20.44,0 -41.37,-0.62 -62.65,-1.91 -104.9,-6.34 -199.08,-27.43 -268.04,-57.11 -34.49,-14.88 -62.72,-31.86 -83,-50.91 -10.12,-9.54 -18.27,-19.65 -24,-30.44 -5.71,-10.772 -8.95,-22.33 -8.95,-34.151 0,-1.32 0.04,-2.629 0.12,-3.937 l 25.06,1.508" /><path
             id="path274"
             style="fill:#6ca3b7;fill-opacity:1;fill-rule:nonzero;stroke:none"
             d="m 2514.84,1049.98 -0.08,2.43 c 0.01,7.26 1.93,14.62 6.03,22.4 7.15,13.59 21.36,28.14 41.91,41.92 30.77,20.72 75.36,39.69 128.97,54.27 53.62,14.61 116.28,24.92 183.48,28.97 20.79,1.25 41.22,1.85 61.15,1.85 83.33,0.02 158.02,-10.65 213.63,-28.62 27.79,-8.96 50.78,-19.76 67.55,-31.54 16.84,-11.79 27.13,-24.36 31.19,-36.42 l 23.76,8.1 c -6.54,19.03 -20.98,35.13 -40.54,48.87 -29.46,20.6 -71.2,36.47 -121.71,47.57 -50.51,11.05 -109.77,17.14 -173.88,17.15 -20.44,0 -41.37,-0.63 -62.65,-1.91 -104.9,-6.34 -199.08,-27.43 -268.04,-57.11 -34.49,-14.88 -62.72,-31.86 -83,-50.91 -10.12,-9.54 -18.27,-19.65 -24,-30.44 -5.72,-10.77 -8.96,-22.33 -8.95,-34.15 0,-1.32 0.04,-2.63 0.12,-3.94 l 25.06,1.51" /><path
             id="path276"
             style="fill:#6ca3b7;fill-opacity:1;fill-rule:nonzero;stroke:none"
             d="m 2994.62,1368.36 -11.56,-4.87 c 6.44,-15.25 9.59,-29.96 9.57,-42.5 -0.02,-14.04 -3.8,-24.99 -10.43,-32.47 -6.68,-7.43 -16.64,-12.56 -32.92,-13.27 -3.39,-0.13 -6.71,-0.19 -9.95,-0.19 -20.94,0 -38.53,2.65 -52.96,7.32 -21.68,7.06 -36.26,18.32 -46,32.94 -9.69,14.63 -14.61,33.2 -14.62,55.26 -0.02,30.28 10.17,57.48 26.09,76.74 15.99,19.3 37.15,30.52 60.23,30.53 11.35,-0.09 18.31,-2.88 24.44,-7.71 4.58,-3.68 8.71,-8.91 12.55,-15.8 5.77,-10.29 10.68,-24.12 15.83,-39.79 5.17,-15.68 10.64,-33.21 18.17,-51.06 l 11.56,4.87 11.57,4.88 c -12.41,29.26 -19.24,59.48 -30.62,84.28 -5.75,12.37 -12.83,23.68 -23.31,32.16 -10.44,8.52 -24.24,13.36 -40.19,13.27 -31.53,0.02 -59.8,-15.58 -79.59,-39.66 -19.87,-24.1 -31.82,-56.82 -31.83,-92.71 0,-17.17 2.57,-33.42 8.14,-48.2 8.31,-22.18 23.72,-40.91 45.76,-53.38 22.03,-12.53 50.24,-19.04 84.78,-19.04 3.56,0 7.2,0.07 10.9,0.21 21.38,0.72 39.13,8.48 50.76,21.71 11.66,13.18 16.76,30.65 16.74,49.11 -0.01,16.65 -4.03,34.42 -11.54,52.25 l -11.57,-4.88" /></g></g><path
         id="path278"
         style="fill:#f9b097;fill-opacity:1;fill-rule:nonzero;stroke:none"
         d="m 3137.69,1716.64 c 0,0 -10.32,-134.08 -44.31,-233.52 -15.76,-46.11 -53.85,-82.7 -79.68,-82.7 -40.65,0 -98.19,18.91 -125.5,47.6 -37.02,38.88 -49.68,164.44 -6.96,225.43 42.71,61 146.82,155.46 256.45,43.19" /><path
         id="path280"
         style="fill:#f9b097;fill-opacity:1;fill-rule:nonzero;stroke:none"
         d="m 2883.5,1469.34 -23,-125.68 c 0,0 0.77,-48.54 58.47,-55.86 57.7,-7.33 61.88,17.53 61.88,17.53 0,0 -29.85,48.64 4.23,136.58 -59.54,24.26 -101.58,27.43 -101.58,27.43" /><path
         id="path282"
         style="fill:#473048;fill-opacity:1;fill-rule:nonzero;stroke:none"
         d="m 3068.32,1602.43 -0.57,0.98 0.56,-0.99 0.01,0.01 -0.57,0.98 0.56,-0.99 c 0.4,0.32 8.81,4.57 16.35,4.46 2.34,0 4.56,-0.35 6.6,-1.14 2.03,-0.79 3.94,-1.97 5.87,-4.04 3.48,-3.74 9.34,-3.96 13.08,-0.48 3.75,3.48 3.96,9.34 0.48,13.08 -3.81,4.12 -8.27,7 -12.79,8.73 -4.53,1.74 -9.07,2.36 -13.24,2.36 -14.27,-0.14 -24.91,-6.64 -25.63,-6.95 -4.42,-2.57 -5.93,-8.23 -3.36,-12.65 2.57,-4.42 8.23,-5.93 12.65,-3.36" /><path
         id="path284"
         style="fill:#473048;fill-opacity:1;fill-rule:nonzero;stroke:none"
         d="m 3004.39,1607.15 c -0.35,0.47 -3.43,4.84 -9.2,9.41 -5.73,4.53 -14.5,9.44 -25.78,9.46 -9.32,0.04 -19.72,-3.57 -29.87,-11.89 -3.99,-3.24 -4.59,-9.1 -1.35,-13.08 3.24,-3.98 9.1,-4.59 13.08,-1.34 7.66,6.17 13.46,7.68 18.14,7.72 5.61,0.02 10.53,-2.53 14.26,-5.47 1.84,-1.45 3.31,-2.94 4.27,-4.01 l 1.04,-1.24 0.21,-0.27 0.02,-0.03 4.01,2.89 -4.05,-2.84 0.04,-0.05 4.01,2.89 -4.05,-2.84 c 2.95,-4.21 8.75,-5.22 12.96,-2.27 4.2,2.95 5.21,8.75 2.26,12.95" /><path
         id="path286"
         style="fill:#473048;fill-opacity:1;fill-rule:nonzero;stroke:none"
         d="m 2988.07,1574.03 c -3.35,0.74 -5.25,-0.39 -8.43,-1.29 -5.69,-1.62 -11.52,-1.28 -17.28,-0.14 -9.68,1.93 -18.31,7.59 -28.34,7.14 -2,-0.09 -2.99,-2.03 -2.17,-3.77 5.5,-11.66 21.65,-14.79 33.35,-15.79 8.07,-0.69 24.63,-0.39 25.43,10.49 0.11,1.44 -1.15,3.05 -2.56,3.36" /><path
         id="path288"
         style="fill:#473048;fill-opacity:1;fill-rule:nonzero;stroke:none"
         d="m 3093.72,1575.3 c -2.78,0.75 -3.97,-0.47 -6.12,-1.94 -2.83,-1.93 -5.63,-2.39 -8.99,-1.7 -6.08,1.24 -10.41,6.36 -16.85,6.06 -1.14,-0.06 -2.07,-0.92 -2.09,-2.1 -0.15,-8.23 9.33,-12.37 16.26,-13.69 7.47,-1.42 15.46,0.46 19.86,7.02 0.85,1.28 0.78,3.19 0,4.47 -0.52,0.85 -1.06,1.6 -2.07,1.88" /><path
         id="path290"
         style="fill:#473048;fill-opacity:1;fill-rule:nonzero;stroke:none"
         d="m 3038.63,1542.73 c 0,0 2.06,-7.18 4.36,-14.93 1.15,-3.88 2.36,-7.9 3.41,-11.26 1.06,-3.4 1.88,-5.97 2.51,-7.52 0.48,-1.15 0.64,-2.08 0.64,-2.87 -0.03,-2.02 -0.98,-3.78 -3.98,-5.69 -2.95,-1.81 -7.76,-3.12 -13.53,-3.11 -3.57,0 -7.51,0.48 -11.6,1.55 -2.7,0.7 -5.45,-0.91 -6.15,-3.6 -0.7,-2.69 0.91,-5.45 3.61,-6.15 4.9,-1.27 9.67,-1.87 14.14,-1.87 7.22,0.01 13.68,1.51 18.76,4.57 5.02,2.96 8.86,8.1 8.82,14.3 0.01,2.24 -0.48,4.51 -1.4,6.72 -0.3,0.7 -1.2,3.41 -2.21,6.66 -3.07,9.87 -7.69,25.96 -7.7,25.99 -0.77,2.67 -3.56,4.21 -6.23,3.45 -2.67,-0.77 -4.22,-3.56 -3.45,-6.24" /><path
         id="path292"
         style="fill:#473048;fill-opacity:1;fill-rule:nonzero;stroke:none"
         d="m 3028.8,1463.14 1.65,-3.13 -1.58,3.17 -0.07,-0.04 1.65,-3.13 -1.58,3.17 c 0,-0.01 -1.16,-0.59 -3.43,-1.18 -2.26,-0.59 -5.61,-1.19 -9.95,-1.19 -8.34,0.01 -20.39,2.16 -35.75,11.21 -3.23,1.9 -7.4,0.83 -9.31,-2.4 -1.9,-3.23 -0.83,-7.4 2.4,-9.31 17.24,-10.19 31.91,-13.1 42.66,-13.09 11.95,0 18.94,3.52 19.67,3.91 3.31,1.75 4.58,5.86 2.82,9.18 -1.75,3.32 -5.86,4.58 -9.18,2.83" /><path
         id="path294"
         style="fill:#222426;fill-opacity:1;fill-rule:nonzero;stroke:none"
         d="m 2727,1398.67 c 2.17,120.35 3.54,123.1 17.71,214.93 7.46,48.36 22.01,109.08 71.41,189.65 42.3,69.02 171.48,64.89 246.3,21.66 74.8,-43.25 75.27,-108.27 75.27,-108.27 0,0 -151.03,73.08 -234.96,-78.26 -10.67,-19.25 -23.07,-81.26 -28.1,-113.49 -8.33,-53.31 -20.22,-121.31 3.73,-232.52 21.5,-99.76 112.05,-207.78 28.28,-320.722 0,0 -4.57,75.322 -134.73,137.152 -76.9,36.55 -46.83,183.94 -44.91,289.87" /><path
         id="path296"
         style="fill:#222426;fill-opacity:1;fill-rule:nonzero;stroke:none"
         d="m 3061.76,1734.12 c 0,0 -35.89,-37.78 55.49,-160.01 0,0 19.1,-61.94 -62.66,-168.27 -81.76,-106.33 -100.98,-256.69 -17.71,-306.97 83.27,-50.29 137.4,-127.222 137.4,-127.222 0,0 52.03,67.562 -10.97,177.802 -63,110.23 -100.89,94.74 -41.35,238.72 59.54,143.97 52.71,296.09 6.31,366.01 0,0 -43.69,12.29 -66.51,-20.06" /><path
         id="path298"
         style="fill:#4b7dc8;fill-opacity:1;fill-rule:nonzero;stroke:none"
         d="m 3170.55,1060.75 -125.7,-21.11 -54.19,-180.57 122.75,20.602 57.14,181.078" /><path
         id="path300"
         style="fill:#5c8fd2;fill-opacity:1;fill-rule:nonzero;stroke:none"
         d="m 3170.55,1060.75 -6.69,20.64 -125.7,-21.1 6.69,-20.65 125.7,21.11" /><path
         id="path302"
         style="fill:#6699d7;fill-opacity:1;fill-rule:nonzero;stroke:none"
         d="m 3038.16,1060.29 -54.92,-180.688 7.42,-20.532 54.19,180.57 -6.69,20.65" /><path
         id="path304"
         style="fill:#f9b097;fill-opacity:1;fill-rule:nonzero;stroke:none"
         d="m 2888.07,848.84 c -11.04,14.039 -6.2,36.262 -1.1,53.121 4.91,16.23 46.64,52.289 57.47,55.578 12.19,3.699 23.1,10.602 35.19,14.57 6.08,1.993 12.18,3.891 18.31,5.68 5.78,1.691 11.54,-2.41 11.97,-8.398 l 8.23,-115.762 c 0.27,-3.879 -102.36,-39.988 -130.07,-4.789" /><path
         id="path306"
         style="fill:#f9b097;fill-opacity:1;fill-rule:nonzero;stroke:none"
         d="m 2978.66,991.621 c -6.73,-7.68 -13.76,-17.082 -19.34,-26.121 -5.61,-9.18 -10.51,-18.559 -13.56,-27.809 -3.09,-9.211 -4.62,-18.132 -4.44,-25.761 0.55,-7.598 2.89,-13.598 5.74,-18.442 11.81,-20.168 5.04,-46.09 -15.13,-57.898 -20.17,-11.82 -46.08,-5.039 -57.9,15.129 -3.22,5.5 -5.07,11.453 -5.63,17.429 l -0.66,7.633 c -1.64,18.43 1.01,36.391 6.68,51.949 5.97,15.352 14.27,28.161 23.32,39.231 9.09,11.059 19.23,20.121 29.61,28.328 10.59,8.201 20.89,15.041 33.07,21.591 7.62,4.11 17.13,1.25 21.24,-6.38 3.19,-5.92 2.18,-12.98 -2,-17.75 l -1,-1.129" /><path
         id="path308"
         style="fill:#f9b097;fill-opacity:1;fill-rule:nonzero;stroke:none"
         d="m 2983.76,886.051 c 3.53,0.969 4.61,1.008 6.63,1.359 1.74,0.238 3.47,0.469 5.07,0.59 3.32,0.352 6.44,0.512 9.56,0.66 6.23,0.25 12.26,0.262 18.23,0.102 11.93,-0.313 23.63,-1.09 35.19,-2.231 23.16,-2.23 45.85,-5.711 68.39,-9.64 6.02,-1.051 10.05,-6.782 9,-12.789 -0.95,-5.442 -5.73,-9.262 -11.08,-9.161 h -0.07 c -22.45,0.36 -44.85,0.25 -66.9,-1.101 -11.03,-0.629 -21.94,-1.629 -32.58,-3.031 -5.31,-0.688 -10.55,-1.539 -15.57,-2.539 -2.47,-0.52 -4.98,-1.051 -7.22,-1.668 -1.18,-0.293 -2.23,-0.614 -3.25,-0.93 l -1.61,-0.684 c -11.33,-3.797 -23.61,2.301 -27.42,13.641 -3.81,11.332 2.3,23.609 13.63,27.422" /><path
         id="path310"
         style="fill:#f9b097;fill-opacity:1;fill-rule:nonzero;stroke:none"
         d="m 2981.52,913.91 c 1.48,1.051 2.02,1.309 2.61,1.649 l 1.73,0.933 c 0.99,0.457 2.09,1.02 2.99,1.379 1.83,0.738 3.68,1.481 5.36,2 3.49,1.199 6.72,1.981 9.97,2.738 6.45,1.43 12.67,2.352 18.78,2.922 12.23,1.16 24.11,1.348 35.79,0.918 23.36,-0.82 46.01,-3.898 68.35,-7.738 6.13,-1.039 10.25,-6.859 9.19,-12.981 -0.94,-5.539 -5.8,-9.441 -11.24,-9.351 h -0.13 c -21.92,0.312 -43.79,-0.188 -64.9,-2.777 -10.53,-1.262 -20.85,-3.114 -30.56,-5.614 -4.86,-1.238 -9.51,-2.726 -13.74,-4.406 -2.06,-0.863 -4.15,-1.742 -5.79,-2.672 -0.94,-0.461 -1.59,-0.922 -2.29,-1.34 l -0.7,-0.55 -0.07,-0.129 c 0,0 -0.07,-0.121 0.86,0.531 -9.53,-7.242 -23.12,-5.383 -30.35,4.137 -7.24,9.523 -5.38,23.113 4.14,30.351" /><path
         id="path312"
         style="fill:#f9b097;fill-opacity:1;fill-rule:nonzero;stroke:none"
         d="m 2986.01,950.422 c 3,1.109 4.1,1.297 5.95,1.808 l 4.77,1.071 c 3.13,0.679 6.12,1.168 9.12,1.66 5.95,0.898 11.82,1.668 17.61,2.18 11.6,1.089 23.04,1.757 34.4,1.988 22.73,0.621 45.19,-0.008 67.55,-1.168 5.97,-0.313 10.57,-5.41 10.26,-11.383 -0.28,-5.379 -4.43,-9.637 -9.62,-10.219 l -0.06,-0.007 c -21.81,-2.442 -43.5,-5.403 -64.71,-9.5 -10.62,-1.973 -21.07,-4.352 -31.25,-7.012 -5.09,-1.32 -10.04,-2.82 -14.86,-4.391 -2.36,-0.808 -4.74,-1.621 -6.92,-2.488 l -3.17,-1.301 -1.84,-0.969 c -10.98,-4.761 -23.73,0.278 -28.49,11.25 -4.75,10.969 0.28,23.731 11.26,28.481" /><path
         id="path314"
         style="fill:#f9b097;fill-opacity:1;fill-rule:nonzero;stroke:none"
         d="m 2946.68,960.789 c 1.24,1.359 1.73,1.762 2.23,2.211 l 1.52,1.289 2.67,2.012 c 1.65,1.121 3.34,2.258 4.89,3.109 3.21,1.91 6.25,3.352 9.32,4.762 6.09,2.699 12.07,4.848 18,6.59 11.85,3.488 23.54,5.879 35.15,7.57 23.21,3.449 46.09,4.34 68.78,4.398 5.91,0.012 10.71,-4.769 10.73,-10.679 0.01,-5.313 -3.85,-9.719 -8.93,-10.571 l -0.14,-0.019 c -21.62,-3.633 -43.05,-8.109 -63.24,-14.641 -10.1,-3.199 -19.83,-7.011 -28.79,-11.371 -4.49,-2.16 -8.68,-4.57 -12.44,-7.051 -1.81,-1.25 -3.62,-2.527 -5.01,-3.777 l -1.87,-1.742 -0.54,-0.68 -0.02,-0.117 0.75,0.727 c -7.72,-9.118 -21.39,-10.27 -30.52,-2.528 -9.13,7.719 -10.26,21.379 -2.54,30.508" /><path
         id="path316"
         style="fill:#f9b097;fill-opacity:1;fill-rule:nonzero;stroke:none"
         d="m 2885.07,919.199 c -61.15,-28.789 -163.24,-38.859 -254.95,-54.269 0,0 37.33,140.77 62.98,252.51 25.65,111.73 64.49,192.42 4.87,212.87 0,0 -78.76,33.76 -117.19,-40.83 -31.21,-60.59 -70.66,-347.289 -93.07,-461.441 -19.96,-101.668 -68.95,-248.328 255.09,-58.508 29.79,17.449 116.46,57.36 168.59,69.899 7.17,1.73 -5.07,49.07 -26.32,79.769" /><path
         id="path318"
         style="fill:#f9b097;fill-opacity:1;fill-rule:nonzero;stroke:none"
         d="m 3103.08,1338.11 c 0,0 161.95,25.96 161.95,-180.65 0,-85.65 5.56,-175.608 21.74,-242.081 23.86,-97.981 18.62,-177.719 -11.77,-196.25 -19.22,-11.719 -54.15,-4.109 -67.33,24.402 0,0 -27.2,18.399 -38.74,69.731 -24.7,109.707 38.74,176.117 32.35,228.938 -5.61,46.42 -21.48,111.19 -30.73,152.51 -14.7,65.81 -27.19,102.02 -66.64,135.6" /><path
         id="path320"
         style="fill:#f9b097;fill-opacity:1;fill-rule:nonzero;stroke:none"
         d="m 3165.19,859.129 0.79,-0.418 -0.13,0.141 -0.81,0.57 c -0.75,0.418 -1.46,0.867 -2.45,1.297 -1.74,0.91 -3.9,1.742 -6.04,2.551 -4.38,1.601 -9.13,3.011 -14.07,4.179 -9.89,2.352 -20.33,4.09 -30.96,5.262 -21.29,2.437 -43.28,2.91 -65.31,2.617 l -0.12,-0.008 c -6.11,-0.078 -11.13,4.801 -11.21,10.91 -0.07,5.52 3.9,10.141 9.17,11.051 22.4,3.879 45.08,7.039 68.45,8.098 11.68,0.562 23.53,0.531 35.73,-0.379 6.1,-0.449 12.3,-1.211 18.73,-2.43 3.25,-0.648 6.47,-1.332 9.95,-2.379 1.67,-0.453 3.52,-1.089 5.34,-1.761 0.89,-0.301 1.99,-0.801 2.98,-1.211 l 1.73,-0.821 c 0.59,-0.296 1.11,-0.527 2.6,-1.468 9.89,-6.731 12.45,-20.2 5.72,-30.078 -6.73,-9.891 -20.21,-12.454 -30.09,-5.723" /><path
         id="path322"
         style="fill:#f9b097;fill-opacity:1;fill-rule:nonzero;stroke:none"
         d="m 3162.11,898.711 0.87,-0.582 -0.04,0.121 -0.64,0.539 c -0.66,0.441 -1.26,0.922 -2.17,1.391 -1.57,0.98 -3.6,1.902 -5.59,2.8 -4.13,1.77 -8.69,3.391 -13.49,4.7 -9.58,2.679 -19.83,4.679 -30.32,6.019 -21.01,2.813 -42.86,3.36 -64.76,3.071 l -0.14,-0.008 c -6.22,-0.082 -11.32,4.879 -11.41,11.109 -0.07,5.609 3.98,10.32 9.35,11.238 22.39,3.821 45.1,6.852 68.56,7.43 11.74,0.32 23.66,-0.039 35.96,-1.461 6.13,-0.687 12.4,-1.789 18.86,-3.398 3.27,-0.871 6.52,-1.75 10,-3.09 1.67,-0.578 3.54,-1.41 5.36,-2.219 0.9,-0.402 1.99,-1 2.96,-1.519 l 1.73,-1.012 c 0.57,-0.36 1.13,-0.66 2.57,-1.789 9.2,-7.629 10.48,-21.281 2.84,-30.492 -7.63,-9.2 -21.29,-10.477 -30.5,-2.848" /><path
         id="path324"
         style="fill:#f9b097;fill-opacity:1;fill-rule:nonzero;stroke:none"
         d="m 3162.44,938.32 0.87,-0.578 -0.04,0.117 -0.65,0.551 c -0.66,0.449 -1.25,0.93 -2.16,1.41 -1.58,0.969 -3.6,1.91 -5.59,2.821 -4.13,1.789 -8.68,3.418 -13.49,4.757 -9.58,2.704 -19.83,4.731 -30.33,6.122 -21.02,2.871 -42.89,3.511 -64.8,3.269 h -0.14 c -5.99,-0.07 -10.89,4.742 -10.96,10.723 -0.05,5.379 3.84,9.898 8.99,10.789 22.36,3.898 45.04,7 68.5,7.64 11.73,0.36 23.65,0.028 35.94,-1.351 6.14,-0.68 12.4,-1.75 18.88,-3.352 3.26,-0.859 6.51,-1.738 10,-3.066 1.68,-0.57 3.54,-1.402 5.36,-2.211 0.91,-0.391 1.99,-1 2.98,-1.5 l 1.71,-1.012 c 0.58,-0.359 1.14,-0.66 2.57,-1.789 9.21,-7.629 10.48,-21.281 2.85,-30.488 -7.63,-9.203 -21.28,-10.481 -30.49,-2.852" /><path
         id="path326"
         style="fill:#f9b097;fill-opacity:1;fill-rule:nonzero;stroke:none"
         d="m 3191.16,953.18 c 1.47,-1.469 0.33,-0.098 0.16,0.109 l -1.8,1.711 c -1.35,1.219 -3.1,2.43 -4.83,3.66 -3.7,2.328 -7.7,4.692 -12.17,6.66 -8.8,4.032 -18.44,7.489 -28.53,10.102 -10.05,2.758 -20.47,4.82 -31.04,6.547 -10.58,1.66 -21.32,2.851 -32.14,3.871 l -0.26,0.031 c -5.88,0.559 -10.18,5.777 -9.63,11.649 0.5,5.29 4.77,9.3 9.89,9.66 11.29,0.8 22.63,1.43 34.1,1.54 11.46,0.04 23.03,-0.29 34.74,-1.48 11.7,-1.04 23.55,-3.09 35.6,-6.31 6.01,-1.551 12.11,-3.75 18.28,-6.348 3.12,-1.441 6.22,-2.891 9.43,-4.801 1.57,-0.84 3.29,-2.062 4.92,-3.14 1.96,-1.539 2.95,-1.942 6.3,-5.43 7.74,-9.129 6.62,-22.801 -2.5,-30.531 -9.13,-7.739 -22.79,-6.621 -30.52,2.5" /><path
         id="path328"
         style="fill:#f9b097;fill-opacity:1;fill-rule:nonzero;stroke:none"
         d="m 3201.28,852.59 c 0,0 -14.08,-28.18 1.68,-88.211 23.68,-7.078 50.63,-7.09 71.86,-0.328 l 19,110.781 c 0,0 -32.08,5.449 -34.55,26.137 -2.46,20.703 -9.86,79.043 -25.9,83.179 -5.22,1.34 -32.3,9.563 -52.94,9.524 0,0 -27.57,-72.512 -19.45,-110.531 8.13,-38.032 40.3,-30.551 40.3,-30.551" /><path
         id="path330"
         style="fill:#f9b097;fill-opacity:1;fill-rule:nonzero;stroke:none"
         d="m 3232.23,1034.36 c 6.24,-7.04 9.84,-12.74 13.51,-19.87 3.44,-6.91 6.26,-14.28 8.02,-22.002 1.72,-7.679 2.91,-15.699 2.85,-23.699 0.17,-8.059 -0.76,-16.008 -2.1,-23.949 l -0.17,-1 c -2.5,-14.879 -16.6,-24.918 -31.48,-22.418 -14.89,2.508 -24.93,16.598 -22.43,31.476 0.52,3.09 1.61,6.071 3.02,8.672 2.26,4.102 4.49,8.352 5.97,12.801 1.72,4.449 2.6,9.078 3.26,13.899 0.63,4.8 0.5,9.742 -0.09,14.72 -0.28,2.49 -0.79,4.94 -1.36,7.4 -0.51,2.22 -1.64,5.16 -1.87,6.35 l -1.08,5.97 c -1.36,7.51 3.62,14.71 11.13,16.07 4.92,0.9 9.72,-0.94 12.82,-4.42" /><path
         id="path332"
         style="fill:#f9b097;fill-opacity:1;fill-rule:nonzero;stroke:none"
         d="m 2826.29,1575.1 c 4.07,-27.79 17.61,-46.61 39.34,-46.61 21.72,0 29.63,20.87 29.63,46.61 0,25.74 -15.29,45.28 -34.7,47.46 -22.53,2.55 -37.99,-21.99 -34.27,-47.46" /><path
         id="path334"
         style="fill:#1e2f30;fill-opacity:1;fill-rule:nonzero;stroke:none"
         d="m 3210.47,565.93 c -0.72,0.64 -16.69,14.582 -71.91,26.371 -2.26,0.48 -4.48,-0.961 -4.96,-3.223 -0.48,-2.258 0.96,-4.476 3.22,-4.957 27.11,-5.789 44.32,-12.051 54.64,-16.789 5.16,-2.371 8.6,-4.352 10.71,-5.711 1.06,-0.68 1.78,-1.191 2.21,-1.519 l 0.44,-0.352 0.08,-0.059 0.86,1 -0.89,-0.98 0.03,-0.02 0.86,1 -0.89,-0.98 c 1.72,-1.551 4.37,-1.41 5.91,0.309 1.55,1.718 1.41,4.359 -0.31,5.91" /><path
         id="path336"
         style="fill:#95dce5;fill-opacity:1;fill-rule:nonzero;stroke:none"
         d="m 2731.84,161.891 c 0,-14.321 -36.09,-25.93 -80.62,-25.93 -44.54,0 -80.64,11.609 -80.64,25.93 0,14.32 36.1,25.918 80.64,25.918 44.53,0 80.62,-11.598 80.62,-25.918" /><path
         id="path338"
         style="fill:#95dce5;fill-opacity:1;fill-rule:nonzero;stroke:none"
         d="m 2731.84,161.891 h -161.26 v 183.41 h 161.26 v -183.41" /><path
         id="path340"
         style="fill:#95dce5;fill-opacity:1;fill-rule:nonzero;stroke:none"
         d="m 2580.45,291.832 6.87,10.297 c -0.39,0.25 -5.81,3.851 -13.99,7.562 -8.21,3.649 -19.11,7.598 -31.38,7.668 -6.12,0 -12.68,-1.078 -18.96,-4.109 -6.28,-3.008 -12.04,-8.051 -16.29,-14.762 -5.36,-8.5 -7.22,-18.316 -7.26,-28.34 0.07,-16.289 5.08,-33.656 14.46,-48.117 4.72,-7.211 10.63,-13.699 17.96,-18.562 7.28,-4.86 16.16,-7.981 25.76,-7.957 11.61,-0.024 23.64,4.476 35.21,13.226 3.34,2.524 5.18,6.551 4.9,10.723 l -4.93,73.199 c -0.26,3.84 -2.28,7.34 -5.48,9.469 l -6.87,-10.297 -12.34,-0.832 4.93,-73.199 12.35,0.828 -7.45,9.883 c -8.48,-6.352 -15.1,-8.242 -20.32,-8.25 -4.36,0.019 -8.18,1.277 -12.1,3.84 -5.82,3.796 -11.44,10.929 -15.31,19.507 -3.9,8.52 -6.04,18.352 -6.02,26.539 -0.04,6.75 1.49,12.204 3.36,15.024 2.06,3.16 4.01,4.699 6.23,5.797 2.21,1.07 4.9,1.64 8.17,1.64 6.5,0.071 14.84,-2.558 21.19,-5.48 3.19,-1.438 5.9,-2.899 7.77,-3.969 0.93,-0.539 1.65,-0.969 2.11,-1.262 l 0.49,-0.32 0.1,-0.058 1.42,2.179 -1.44,-2.168 0.02,-0.011 1.42,2.179 -1.44,-2.168 6.86,10.301 -12.34,-0.832 12.34,0.832" /><path
         id="path342"
         style="fill:#6ccac5;fill-opacity:1;fill-rule:nonzero;stroke:none"
         d="m 2731.84,345.301 c 0,-9.539 -36.09,-17.289 -80.62,-17.289 -44.54,0 -80.64,7.75 -80.64,17.289 0,9.551 36.1,17.289 80.64,17.289 44.53,0 80.62,-7.738 80.62,-17.289" /><path
         id="path344"
         style="fill:#f35a71;fill-opacity:1;fill-rule:nonzero;stroke:none"
         d="m 2401.93,148.379 c 34.56,20.91 3.3,51.551 -45.88,69.652 -26.98,9.918 -73.95,24.028 -96.56,52.289 -23.95,29.91 -28.03,38.309 -29.14,101.719 l -71.05,-24.918 2.22,-39.211 -2.22,-54.32 c 0,0 -44.53,-75.18 41.79,-79.719 33.16,-1.742 73.22,-11.98 121.95,-37.91 25.49,-13.551 67.2,5.34 78.89,12.418" /><path
         id="path346"
         style="fill:#f9b097;fill-opacity:1;fill-rule:nonzero;stroke:none"
         d="m 2239.47,300.23 c -7.09,15.661 -8.72,48.77 -9.12,71.809 l -71.05,-24.918 2.22,-39.211 -0.2,-0.82 c 27.64,-8.66 53.49,-19.75 78.15,-6.86" /><path
         id="path348"
         style="fill:#4b7dc8;fill-opacity:1;fill-rule:nonzero;stroke:none"
         d="m 2149.26,1130.38 c -126.03,186.78 -344.21,258.02 -344.21,258.02 l -133.3,58.74 c 0,0 -77.85,-32.26 -33.78,-223 l 104.86,-97.12 c 137.47,-15 272.95,-16.21 406.43,3.36" /><path
         id="path350"
         style="fill:#4b7dc8;fill-opacity:1;fill-rule:nonzero;stroke:none"
         d="m 2149.26,1130.38 c -133.48,-19.57 -268.96,-18.36 -406.43,-3.36 l 199.5,-184.821 c 76.27,-54.148 134.9,-92.847 134.9,-92.847 7.1,-289.032 79.12,-527.852 79.12,-527.852 l 89.78,19.512 c 0,0 39.26,252.187 -16.82,589.707 -12.91,77.681 -42.37,143.821 -80.05,199.661" /><path
         id="path352"
         style="fill:#406db5;fill-opacity:1;fill-rule:nonzero;stroke:none"
         d="m 1867.57,1098.78 c -76.26,103.99 -158.55,177.85 -241.62,258.26 -3.44,-32.18 -1.29,-75.27 12.02,-132.9 l 304.36,-281.941 c 76.27,-54.148 134.9,-92.847 134.9,-92.847 7.1,-289.032 79.12,-527.852 79.12,-527.852 l 40.1,8.711 c -35.35,179.738 -70.88,347.301 -75.49,566.449 -38.42,42.199 -181.61,106.42 -253.39,202.12" /><path
         id="path354"
         style="fill:#3860a0;fill-opacity:1;fill-rule:nonzero;stroke:none"
         d="m 2199.06,330.691 c 0,0.02 -1.16,5.86 -3.18,16.457 -14.19,74.102 -70.92,380.594 -70.89,527.731 0,7.652 0.15,14.859 0.47,21.57 0.08,1.582 -0.68,3.082 -1.99,3.961 -0.01,0.012 -4.67,3.129 -12.95,8.879 -28.99,20.102 -102.07,72.109 -171.88,132.321 -34.91,30.09 -68.99,62.24 -96.29,93.4 -27.31,31.12 -47.78,61.35 -55.6,86.94 -0.73,2.38 -3.25,3.72 -5.63,2.99 -2.38,-0.73 -3.72,-3.25 -2.99,-5.64 9.8,-31.74 36.01,-67.47 69.71,-103.83 101.07,-108.88 270.47,-222.439 270.6,-222.548 l 2.52,3.738 -4.51,0.219 c -0.32,-6.879 -0.48,-14.231 -0.48,-22 0.01,-85.168 18.59,-221.449 37.13,-336.688 18.56,-115.203 37.1,-209.211 37.11,-209.242 0.48,-2.449 2.85,-4.039 5.3,-3.558 2.44,0.488 4.03,2.859 3.55,5.3" /><path
         id="path356"
         style="fill:#f35a71;fill-opacity:1;fill-rule:nonzero;stroke:none"
         d="m 2125.95,53.9922 c 30.59,-6.293 97.92,9.0273 108.48,43.8867 4.59,15.1721 -5.7,28.6331 -18.25,32.9411 -34.53,11.899 -113.4,31.789 -131.75,36.551 -18.36,4.738 -54.24,41.52 -55.24,105.918 l -71.1,-25.43 2.14,-39.82 c 0,0 -2.14,-37.68 -2.14,-58.309 0,-20.628 -36.02,-66.4605 35.2,-77.3511 50.43,-7.7187 94.31,-10.5 132.66,-18.3867" /><path
         id="path358"
         style="fill:#f9b097;fill-opacity:1;fill-rule:nonzero;stroke:none"
         d="m 2041.62,214.281 c -7.06,15.899 -12.06,35.598 -12.43,59.008 l -71.1,-25.43 2.14,-39.82 -0.2,-0.828 c 27.63,-8.75 56.9,-6.063 81.59,7.07" /><path
         id="path360"
         style="fill:#4b7dc8;fill-opacity:1;fill-rule:nonzero;stroke:none"
         d="m 1504.29,1346.25 c 0,0 391.35,-137.84 446.85,-480.48 55.49,-342.641 93.79,-623.969 93.79,-623.969 l -89.84,-19.981 c 0,0 -165.25,231.34 -171.84,524.828 0,0 -66.26,91.891 -142.45,146.743 -121.19,87.25 -277.06,166.909 -303.92,285.759 -43.74,193.61 34.18,226.51 34.18,226.51 l 133.23,-59.41" /><path
         id="path362"
         style="fill:#406db5;fill-opacity:1;fill-rule:nonzero;stroke:none"
         d="m 2149.26,1130.38 c -126.03,186.78 -344.21,258.02 -344.21,258.02 l -133.3,58.74 c 0,0 -77.85,-32.26 -33.78,-223 l 104.86,-97.12 c 137.47,-15 272.95,-16.21 406.43,3.36" /><path
         id="path364"
         style="fill:#406db5;fill-opacity:1;fill-rule:nonzero;stroke:none"
         d="m 1444.88,1234.36 c 15.95,-31.9 186.71,-82.25 218.61,-90.23 106.02,-21.2 81.67,-28.4 167.78,-24.82 -128.03,151.77 -309.52,220.56 -325.8,226.51 -40.4,-20.86 -74.39,-63.15 -60.59,-111.46" /><path
         id="path366"
         style="fill:#406db5;fill-opacity:1;fill-rule:nonzero;stroke:none"
         d="m 1572.49,1050.93 c -145.55,106.13 -183.44,183.79 -136.3,325.69 l -65.13,29.04 c 0,0 -77.92,-32.9 -34.18,-226.51 26.86,-118.85 182.73,-198.509 303.92,-285.759 76.19,-54.852 142.45,-146.743 142.45,-146.743 6.59,-293.488 171.84,-524.828 171.84,-524.828 l 39.65,8.828 c -28.34,94.891 -64.8,179.243 -87.22,277.282 -23.86,104.402 -42.63,182.761 -60.24,303.449 -64.84,47.691 -168.52,156.851 -274.79,239.551" /><path
         id="path368"
         style="fill:#3860a0;fill-opacity:1;fill-rule:nonzero;stroke:none"
         d="m 1994.87,231.16 c 0,0.02 -1.97,5.852 -5.46,16.512 -24.42,74.539 -123.1,384.808 -137.63,564.078 -0.09,1.039 -0.54,2.031 -1.27,2.781 -0.11,0.11 -42.23,43.367 -183.87,170.668 -64.86,58.271 -126.33,95.751 -171.03,134.851 -22.37,19.53 -40.51,39.41 -53.06,62.4 -12.54,22.99 -19.61,49.13 -19.62,81.7 0,12.7 1.08,26.37 3.35,41.18 0.38,2.46 -1.31,4.76 -3.77,5.14 -2.46,0.38 -4.76,-1.31 -5.14,-3.78 -2.34,-15.2 -3.46,-29.33 -3.46,-42.54 -0.01,-33.87 7.45,-61.75 20.72,-86.03 19.93,-36.44 52.56,-64.65 91.98,-94.62 39.46,-29.98 85.87,-61.75 134,-105.012 70.77,-63.597 116.66,-106.187 144.84,-132.867 14.09,-13.34 23.75,-22.699 29.89,-28.723 3.06,-3.007 5.25,-5.179 6.66,-6.597 1.42,-1.422 2.05,-2.063 2.05,-2.071 l 3.23,3.149 -4.5,-0.359 c 8.45,-103.649 44.34,-249.141 78.1,-368.95 33.77,-119.781 65.43,-213.738 65.44,-213.789 0.8,-2.359 3.36,-3.633 5.72,-2.832 2.36,0.789 3.63,3.352 2.83,5.711" /><path
         id="path370"
         style="fill:#3860a0;fill-opacity:1;fill-rule:nonzero;stroke:none"
         d="m 1929.05,972.148 c -0.18,0.532 -46.85,160.472 -220.22,268.692 -2.11,1.32 -4.89,0.68 -6.21,-1.44 -1.32,-2.11 -0.68,-4.89 1.44,-6.21 85.27,-53.21 139.37,-119.18 172.17,-171.86 16.4,-26.33 27.46,-49.33 34.41,-65.709 3.47,-8.191 5.92,-14.73 7.5,-19.199 0.78,-2.231 1.35,-3.953 1.72,-5.102 0.37,-1.148 0.53,-1.699 0.53,-1.699 0.69,-2.391 3.2,-3.762 5.59,-3.07 2.39,0.699 3.76,3.199 3.07,5.597" /><path
         id="path372"
         style="fill:#f9b097;fill-opacity:1;fill-rule:nonzero;stroke:none"
         d="m 2129.78,1308.72 c -7.05,-3.99 -12.28,-5.84 -18.89,-7.47 -6.34,-1.49 -12.93,-2.12 -19.6,-2.08 -6.6,0.17 -13.31,0.94 -19.79,2.42 -6.55,1.42 -12.81,3.5 -19.03,5.91 l -4.66,1.81 c -16.81,6.51 -25.15,25.41 -18.64,42.22 6.51,16.8 25.42,25.14 42.22,18.64 6.99,-2.71 12.52,-7.58 16.12,-13.53 1.9,-3.14 3.97,-6.31 6.3,-9.14 2.33,-2.9 4.92,-5.45 7.8,-7.87 2.88,-2.28 6.08,-4.34 9.57,-5.93 3.2,-1.67 7.9,-2.54 10.19,-3.41 l 6.98,-2.66 c 5.41,-2.06 8.12,-8.11 6.06,-13.51 -0.9,-2.38 -2.58,-4.24 -4.63,-5.4" /><path
         id="path374"
         style="fill:#f9b097;fill-opacity:1;fill-rule:nonzero;stroke:none"
         d="m 2053.24,1389.6 c 7.33,2.08 12.76,2.86 19.04,3.69 6.08,0.68 12.15,1.03 18.21,1.05 12.1,0.05 24.19,-1.26 35.92,-4.07 11.71,-2.76 23.18,-6.67 33.79,-12.2 10.8,-5.16 20.5,-12.12 29.75,-19.35 4.94,-3.85 5.81,-10.97 1.96,-15.9 -3.63,-4.64 -10.15,-5.7 -15.02,-2.59 l -0.72,0.47 c -8.51,5.46 -17.15,10.64 -26.5,14.09 -9.16,3.83 -18.83,6.16 -28.55,7.57 -9.71,1.46 -19.6,1.65 -29.34,0.75 -4.87,-0.45 -9.69,-1.16 -14.41,-2.12 -4.5,-0.93 -9.81,-2.37 -12.91,-3.59 l -0.31,-0.13 c -8.78,-3.46 -18.7,0.86 -22.15,9.64 -3.46,8.79 0.86,18.7 9.64,22.16 l 1.6,0.53" /><path
         id="path376"
         style="fill:#f9b097;fill-opacity:1;fill-rule:nonzero;stroke:none"
         d="m 2091.35,1364.95 c 9.95,-1.98 18.17,-4.37 26.95,-7.07 8.6,-2.72 17.06,-5.7 25.38,-9 16.64,-6.59 32.76,-14.27 48.27,-22.93 5.48,-3.07 7.44,-9.99 4.38,-15.47 -2.84,-5.09 -9.02,-7.14 -14.28,-4.95 l -0.15,0.07 c -15.41,6.49 -31.21,11.97 -47.22,16.35 -8.01,2.18 -16.08,4.05 -24.15,5.65 -7.91,1.54 -16.52,2.94 -23.61,3.52 l -0.28,0.03 c -9.41,0.77 -16.41,9.02 -15.64,18.42 0.77,9.41 9.02,16.41 18.42,15.64 l 1.93,-0.26" /><path
         id="path378"
         style="fill:#f9b097;fill-opacity:1;fill-rule:nonzero;stroke:none"
         d="m 2063.76,1376.71 c 13.97,2.53 26.35,1.97 38.55,0.65 12.13,-1.42 23.89,-3.94 35.38,-7.34 22.86,-6.92 45.11,-17 64.04,-33.11 4.77,-4.06 5.35,-11.23 1.29,-16 -3.85,-4.52 -10.48,-5.28 -15.22,-1.9 l -0.26,0.18 c -16.36,11.72 -36.48,19.04 -56.83,23.29 -10.2,2.1 -20.59,3.4 -30.78,3.71 -10.09,0.31 -20.36,-0.45 -28.31,-2.67 l -0.24,-0.06 c -9.08,-2.54 -18.5,2.77 -21.04,11.86 -2.53,9.09 2.78,18.5 11.86,21.04 l 1.56,0.35" /><path
         id="path380"
         style="fill:#f9b097;fill-opacity:1;fill-rule:nonzero;stroke:none"
         d="m 2058.08,1355.65 c 4.06,0.98 6.28,1.18 9.21,1.5 2.76,0.29 5.44,0.42 8.11,0.48 5.33,0.1 10.56,-0.12 15.7,-0.7 10.31,-1.1 20.27,-3.4 29.86,-6.48 9.51,-3.28 18.71,-7.18 27.32,-11.98 8.69,-4.67 16.74,-10.18 24.53,-15.93 5.05,-3.72 6.12,-10.82 2.41,-15.87 -3.47,-4.69 -9.88,-5.94 -14.82,-3.08 l -0.47,0.27 c -7.44,4.35 -14.96,8.43 -22.79,11.62 -7.76,3.32 -15.78,5.73 -23.79,7.61 -8.05,1.66 -16.15,2.64 -24.09,2.63 -3.97,0.05 -7.89,-0.23 -11.68,-0.71 -1.88,-0.23 -3.76,-0.53 -5.51,-0.91 -1.6,-0.32 -3.88,-0.93 -4.23,-1.14 -8.35,-4.72 -18.95,-1.78 -23.67,6.57 -4.73,8.35 -1.79,18.94 6.55,23.67 1.43,0.81 2.92,1.38 4.44,1.76 l 2.92,0.69" /><path
         id="path382"
         style="fill:#f9b097;fill-opacity:1;fill-rule:nonzero;stroke:none"
         d="m 1987.24,1393.86 85.01,-6.39 -9.29,-77.38 -61.62,18.32 c -15.22,3.46 -24.75,18.61 -21.29,33.82 l 7.19,31.63" /><path
         id="path384"
         style="fill:#f9b097;fill-opacity:1;fill-rule:nonzero;stroke:none"
         d="m 1806.59,1586.75 -0.12,0.21 0.34,-0.47 z m 8.99,6.48 c -9.27,13.28 -8.79,99.45 -2.28,168.36 6.29,66.62 -5.68,128.44 2.28,194.89 10.77,89.9 -18.49,130.83 -79.96,130.83 -71.24,0 -59.71,-102.6 -59.84,-144.7 -0.24,-75.35 38.81,-200.59 41.74,-275.94 1.47,-37.61 1.66,-79.23 18.68,-113.79 26.68,-54.14 86.39,-82.66 129.51,-121.64 8.67,-7.83 127.85,-105.29 130.77,-98.13 l 22.92,56.14 c -56.74,58.66 -202.61,202.25 -203.82,203.98" /><path
         id="path386"
         style="fill:#555e9a;fill-opacity:1;fill-rule:nonzero;stroke:none"
         d="m 1511.3,2120.97 c 0,0 -47.35,-0.25 -127.16,-17.23 l -168.8,-193.28 c 0,0 82.79,-8.49 93.97,-84.25 14.79,-100.19 4.6,-289.15 -15.17,-419.54 -7.18,-47.35 25.88,-60.66 30.65,-64.33 0,0 185.67,-90.47 369.44,-62.8 183.78,27.67 107.86,105.58 107.86,105.58 0,0 -32.07,116.51 -46.13,255.59 0,0 34.72,410.1 -31.45,459.69 -54.69,40.98 -213.21,20.57 -213.21,20.57" /><path
         id="path388"
         style="fill:#555e9a;fill-opacity:1;fill-rule:nonzero;stroke:none"
         d="m 1713.02,2107.24 c 0,0 126.02,0.6 126.02,-179.33 0,-34.67 15.8,-84.58 10.97,-132.94 -1,-9.97 -42.89,-56.13 -143.56,-26.07 l 6.57,338.34" /><path
         id="path390"
         style="fill:#6b8893;fill-opacity:1;fill-rule:nonzero;stroke:none"
         d="m 1596.08,1371.75 c 60.32,2.81 144.79,30 193.16,66.26 -1.92,8.56 -3.95,17.94 -6.07,28.15 -47.82,-26.1 -98.67,-46.56 -152.21,-57.43 -125.5,-25.47 -271.33,14.43 -326.11,83.35 -0.82,-7.94 -1.67,-15.78 -2.56,-23.53 7.04,-25.56 49.19,-108.23 293.79,-96.8" /><path
         id="path392"
         style="fill:#f9b097;fill-opacity:1;fill-rule:nonzero;stroke:none"
         d="m 1579.46,1448.34 c -63.49,8.27 -126.4,22.36 -186.05,44.12 -41.41,15.31 -102.06,38.39 -132.41,78.08 -3.08,4.03 -4.96,7.81 -4.8,8.67 1.69,-3.15 -0.13,7.46 1.56,19.61 6.42,46.07 25.85,92.24 47.29,130.65 32.07,57.48 73.9,108.97 120.14,153.61 33.58,32.42 39.24,91.87 12.62,132.77 -26.62,40.91 -75.43,47.79 -109.02,15.36 -2.31,-2.22 -4.49,-4.58 -6.53,-7.06 l -0.71,-0.86 c -50.82,-62.3 -96.2,-132.45 -130.47,-212.8 -29.34,-68.79 -57.83,-169.63 -44.5,-249.83 1.32,-7.9 3.1,-16.17 5.86,-25 29.43,-100.44 146.24,-129.53 221.06,-145.7 67.97,-14.67 135.68,-20 203.02,-19.35 17.67,0.18 31.88,17.75 31.74,39.28 -0.13,20.01 -12.62,36.38 -28.8,38.45" /><path
         id="path394"
         style="fill:#f9b097;fill-opacity:1;fill-rule:nonzero;stroke:none"
         d="m 1657.13,1437.1 c 1.87,0.43 2.86,0.56 4.02,0.76 l 3.3,0.44 c 2.14,0.28 4.25,0.49 6.27,0.6 4.13,0.36 8.13,0.34 12.16,0.41 7.98,-0.18 15.89,-0.74 23.67,-2.01 15.53,-2.5 30.73,-6.84 44.74,-13.54 13.9,-6.78 27.27,-14.67 38.6,-24.72 6.07,-4.57 10.99,-10.27 16.39,-15.41 5.1,-5.42 9.6,-11.28 14.36,-16.89 6.05,-7.14 5.17,-17.82 -1.97,-23.87 -6.62,-5.62 -16.32,-5.26 -22.51,0.54 l -1.59,1.49 c -4.53,4.23 -8.77,8.76 -13.41,12.73 -4.87,3.65 -9.26,7.93 -14.46,10.94 -9.75,7.04 -20.65,11.78 -31.49,15.79 -10.93,3.89 -22.39,5.76 -33.72,6.38 -5.66,0.31 -11.32,0.06 -16.86,-0.38 -2.73,-0.38 -5.5,-0.63 -8.09,-1.17 -2.41,-0.37 -5.67,-1.22 -6.42,-1.53 -13.15,-5.39 -28.17,0.89 -33.57,14.02 -5.39,13.15 0.89,28.18 14.03,33.57 1.28,0.53 2.58,0.95 3.89,1.25 l 2.66,0.6" /><path
         id="path396"
         style="fill:#f9b097;fill-opacity:1;fill-rule:nonzero;stroke:none"
         d="m 1703.53,1394.54 c 6.75,-2.63 11.46,-4.95 16.89,-7.59 5.22,-2.6 10.33,-5.28 15.32,-8.1 10,-5.61 19.68,-11.58 29.08,-17.88 18.76,-12.68 36.46,-26.6 53.03,-41.63 6.97,-6.33 7.49,-17.1 1.17,-24.07 -5.81,-6.4 -15.37,-7.37 -22.29,-2.58 l -0.13,0.1 c -17.08,11.77 -34.91,22.3 -53.24,31.42 -9.18,4.52 -18.51,8.68 -27.89,12.41 -4.67,1.88 -9.39,3.59 -14.07,5.19 -4.49,1.51 -9.78,3.19 -13.23,3.97 -13.82,3.1 -22.51,16.83 -19.4,30.65 3.12,13.82 16.84,22.5 30.65,19.39 1.22,-0.27 2.4,-0.63 3.53,-1.06 l 0.58,-0.22" /><path
         id="path398"
         style="fill:#f9b097;fill-opacity:1;fill-rule:nonzero;stroke:none"
         d="m 1668.76,1416.79 c 19.53,1.38 35.3,-2.12 50.52,-6.53 15.09,-4.59 29.19,-10.74 42.61,-18.06 26.67,-14.71 51.01,-34.07 69.56,-59.14 5.59,-7.55 3.99,-18.2 -3.56,-23.79 -7.06,-5.22 -16.82,-4.18 -22.63,2.14 l -0.37,0.4 c -16.65,18.24 -38.43,32.32 -61.62,42.11 -11.6,4.86 -23.66,8.65 -35.55,10.94 -11.71,2.31 -23.94,2.91 -32.16,1.27 -13.87,-2.77 -27.36,6.24 -30.12,20.11 -2.77,13.87 6.23,27.36 20.1,30.12 1.03,0.21 2.2,0.35 3.22,0.43" /><path
         id="path400"
         style="fill:#f9b097;fill-opacity:1;fill-rule:nonzero;stroke:none"
         d="m 1658.34,1387.25 c 3.74,0.59 5.09,0.57 7.3,0.67 2.08,0.12 3.9,0.04 5.81,0.02 3.73,-0.13 7.37,-0.35 10.86,-0.86 7.09,-0.83 13.8,-2.41 20.35,-4.27 13.07,-3.81 25.12,-9.43 36.29,-15.97 11.18,-6.55 21.18,-14.39 30.55,-22.63 4.67,-4.13 8.9,-8.64 13.32,-12.93 l 12.11,-13.73 c 6.2,-7.03 5.53,-17.76 -1.5,-23.97 -6.49,-5.72 -16.13,-5.6 -22.46,-0.01 l -1.01,0.9 -11.9,10.48 c -4.2,3.1 -8.21,6.47 -12.47,9.35 -8.53,5.75 -17.26,10.97 -26.32,14.8 -9.04,3.83 -18.24,6.7 -27.31,8.1 -4.52,0.67 -9.03,1.14 -13.3,1.04 -2.15,0.05 -4.22,-0.16 -6.15,-0.34 -0.94,-0.12 -1.96,-0.2 -2.71,-0.39 -0.62,-0.09 -2.1,-0.44 -1.16,-0.33 -13.83,-2.85 -27.34,6.06 -30.18,19.88 -2.85,13.83 6.05,27.35 19.88,30.19" /><path
         id="path402"
         style="fill:#f9b097;fill-opacity:1;fill-rule:nonzero;stroke:none"
         d="m 1580.19,1447.91 112.32,-12.52 c 0,0 51.81,-93.92 -9.28,-95.43 -61.08,-1.5 -113.97,30.2 -113.97,30.2 l 10.93,77.75" /><path
         id="path404"
         style="fill:#555e9a;fill-opacity:1;fill-rule:nonzero;stroke:none"
         d="m 1318.64,2087.31 c -41.85,-33.65 -81.3,-96.82 -147.7,-253.04 0,0 16.83,-91.69 167.12,-137.36 0,0 46.71,48.51 86.05,139.76 39.33,91.24 72.61,150.98 16.75,216.99 -2.89,3.41 -36.6,48.38 -51.19,49.6 -15.6,1.3 -58.83,-6.15 -71.03,-15.95" /><path
         id="path406"
         style="fill:#3d4571;fill-opacity:1;fill-rule:nonzero;stroke:none"
         d="m 1769.17,1796.09 c 0.78,17.36 1.1,34.79 1.1,51.81 0,88.93 -8.89,166.86 -8.9,166.97 l -0.01,0.04 c -0.02,0.22 -1.69,13.81 -7.42,31.11 -5.75,17.28 -15.5,38.37 -32.35,53.4 -2.06,1.83 -5.22,1.65 -7.05,-0.41 -1.84,-2.07 -1.65,-5.23 0.41,-7.06 14.78,-13.1 24.09,-32.7 29.5,-49.08 2.71,-8.18 4.47,-15.53 5.54,-20.8 0.54,-2.64 0.9,-4.76 1.13,-6.21 0.23,-1.45 0.32,-2.16 0.32,-2.17 l -0.01,0.04 c 0.01,-0.01 0.55,-4.8 1.38,-13.45 2.49,-25.93 7.46,-86.17 7.46,-152.38 0,-16.89 -0.32,-34.17 -1.09,-51.36 -0.12,-2.76 2.01,-5.1 4.77,-5.22 2.76,-0.13 5.1,2.01 5.22,4.77" /><path
         id="path408"
         style="fill:#3d4571;fill-opacity:1;fill-rule:nonzero;stroke:none"
         d="m 1438.72,1887.04 c 0,0 -0.6,-1.77 -1.79,-5.09 -8.32,-23.24 -45.84,-120.88 -102.53,-181.63 -1.88,-2.02 -1.77,-5.19 0.25,-7.07 2.02,-1.88 5.18,-1.77 7.07,0.25 66.92,71.98 106.32,190.07 106.48,190.36 0.88,2.62 -0.53,5.46 -3.15,6.33 -2.62,0.88 -5.45,-0.53 -6.33,-3.15" /><path
         id="path410"
         style="fill:#3d4571;fill-opacity:1;fill-rule:nonzero;stroke:none"
         d="m 1390.83,2076.14 0.14,-0.03 c 1.78,-0.33 20.15,-4.29 37.67,-18.12 17.51,-13.9 34.45,-37.14 34.53,-78.03 0,-18.64 -3.6,-40.98 -12.54,-67.67 -0.88,-2.62 0.53,-5.46 3.15,-6.33 2.62,-0.88 5.45,0.53 6.33,3.15 9.22,27.52 13.06,50.92 13.06,70.85 0.09,45.21 -20.1,72.34 -40.23,87.33 -20.11,15.06 -39.9,18.59 -40.35,18.69 -2.71,0.49 -5.31,-1.32 -5.8,-4.04 -0.48,-2.72 1.33,-5.32 4.04,-5.8" /><path
         id="path412"
         style="fill:#fcd5de;fill-opacity:1;fill-rule:nonzero;stroke:none"
         d="m 1463.44,1286.75 386.57,14.76 -86.73,-133.59 z" /><path
         id="path414"
         style="fill:#884a54;fill-opacity:1;fill-rule:nonzero;stroke:none"
         d="m 2301,1587.01 -32.18,19.5 -50.67,-3.86 -429.92,-32.78 -81.43,-397.02 480.59,36.64 76.85,374.71 36.76,2.81" /><path
         id="path416"
         style="fill:#884a54;fill-opacity:1;fill-rule:nonzero;stroke:none"
         d="m 1467.56,1232.79 286.84,-78.28 -4.11,53.97 -286.85,78.27 4.12,-53.96" /><path
         id="path418"
         style="fill:#f35b70;fill-opacity:1;fill-rule:nonzero;stroke:none"
         d="m 2219.57,1189.97 -480.59,-36.64 81.43,397.03 480.59,36.65 -81.43,-397.04" /><path
         id="path420"
         style="fill:#fcd5de;fill-opacity:1;fill-rule:nonzero;stroke:none"
         d="m 2073.32,1449.86 c -0.55,-0.02 -4.91,-0.24 -9.83,-3.6 -4.95,-3.34 -10.03,-9.97 -11.77,-21.12 -0.42,-2.58 1.33,-5.01 3.92,-5.43 2.58,-0.41 5.01,1.34 5.43,3.92 1.52,9.11 4.99,12.85 7.78,14.82 1.41,0.97 2.73,1.47 3.66,1.71 l 1.02,0.22 0.19,0.02 -0.12,1.48 0.05,-1.48 h 0.07 l -0.12,1.48 0.05,-1.48 c 2.62,0.09 4.66,2.28 4.57,4.9 -0.09,2.61 -2.29,4.66 -4.9,4.56" /><path
         id="path422"
         style="fill:#fcd5de;fill-opacity:1;fill-rule:nonzero;stroke:none"
         d="m 2075.38,1407.37 c -1.69,-13.53 -13.21,-24.52 -25.62,-24 -12.36,0.53 -20.09,12.27 -17.43,25.66 2.54,12.79 13.73,22.44 25.14,22.05 11.46,-0.4 19.52,-10.79 17.91,-23.71" /><path
         id="path424"
         style="fill:#fcd5de;fill-opacity:1;fill-rule:nonzero;stroke:none"
         d="m 2067.91,1361.21 c 1.4,11.01 8.79,19.62 17.51,21.76 -5.16,14.66 -16.84,24.66 -31.65,25.23 -21.2,0.82 -42.72,-18.07 -48.65,-44.07 -6.45,-28.33 7.78,-54.36 32.52,-55.74 17.29,-0.96 33.65,10.8 42.97,27.93 -8.72,3.33 -14.15,13.49 -12.7,24.89" /><path
         id="path426"
         style="fill:#f9b097;fill-opacity:1;fill-rule:nonzero;stroke:none"
         d="m 1812,2440.67 c 0,0 10.04,-45.35 -6.98,-135.98 -10.15,-54.05 -3.89,-80.92 -43.02,-146.32 -8.34,-13.94 -16.98,-24.45 -24.02,-31.84 -8.67,-9.09 -21.5,-12.78 -33.77,-10.06 -31.58,7.02 -98.01,29.7 -122.73,58.82 -33.52,39.46 -47.25,171.47 -5.76,230.86 41.49,59.38 136.97,148.56 236.28,34.52" /><path
         id="path428"
         style="fill:#f9b097;fill-opacity:1;fill-rule:nonzero;stroke:none"
         d="m 1571.67,2219.71 -58.79,-112.23 c 0,0 -13.57,-46.17 38.9,-70.09 52.47,-23.94 63.75,-1.63 63.75,-1.63 l 44.24,128.06 -88.1,55.89" /><path
         id="path430"
         style="fill:#473048;fill-opacity:1;fill-rule:nonzero;stroke:none"
         d="m 1771.1,2323.13 -1.69,1.82 1.65,-1.86 0.04,0.04 -1.69,1.82 1.65,-1.86 c 0.05,0.06 1.26,1.1 3.06,2.04 1.81,0.96 4.14,1.75 6.5,1.74 2.87,-0.07 6.08,-0.84 10.44,-5.35 2.53,-2.68 6.74,-2.8 9.41,-0.27 2.68,2.52 2.8,6.73 0.28,9.41 -6.3,6.78 -13.75,9.6 -20.13,9.53 -5.59,-0.01 -10.13,-1.86 -13.28,-3.59 -3.17,-1.75 -5.02,-3.45 -5.3,-3.71 -2.7,-2.5 -2.85,-6.71 -0.35,-9.41 2.5,-2.69 6.71,-2.85 9.41,-0.35" /><path
         id="path432"
         style="fill:#473048;fill-opacity:1;fill-rule:nonzero;stroke:none"
         d="m 1727.56,2338.8 c -0.72,0.54 -8.2,6.07 -21.03,6.08 -7.83,0.02 -17.49,-2.12 -28.22,-8.35 -3.18,-1.84 -4.27,-5.92 -2.43,-9.1 1.84,-3.18 5.92,-4.27 9.1,-2.43 8.94,5.16 16.09,6.55 21.55,6.57 4.45,-0.01 7.82,-0.96 10.04,-1.87 1.1,-0.45 1.92,-0.89 2.41,-1.18 l 0.49,-0.31 0.05,-0.03 2,2.76 -2.07,-2.71 0.07,-0.05 2,2.76 -2.07,-2.71 c 2.91,-2.24 7.09,-1.69 9.33,1.23 2.24,2.92 1.69,7.1 -1.22,9.34" /><path
         id="path434"
         style="fill:#473048;fill-opacity:1;fill-rule:nonzero;stroke:none"
         d="m 1723.35,2308.71 c -2.39,0.6 -3.81,-0.23 -6.1,-0.81 -4.11,-1.04 -8.28,-0.65 -12.38,0.3 -6.86,1.58 -12.92,5.75 -20.09,5.62 -1.47,-0.02 -2.09,-1.48 -1.55,-2.7 3.72,-8.44 15.32,-11.01 23.66,-11.91 5.87,-0.63 17.48,-0.73 18.3,7.09 0.1,1.06 -0.86,2.17 -1.84,2.41" /><path
         id="path436"
         style="fill:#473048;fill-opacity:1;fill-rule:nonzero;stroke:none"
         d="m 1796.68,2295.49 c -2.17,0.61 -3.25,-0.09 -5.27,-0.76 -3.69,-1.23 -7.07,-1.53 -10.94,-0.92 -6.13,0.96 -11.54,4.73 -17.86,4.1 -1.09,-0.11 -2.13,-1.07 -1.73,-2.27 2.6,-7.97 12.55,-9.91 19.95,-10.49 5.28,-0.42 18.01,0.26 17.68,7.93 -0.04,1.11 -0.74,2.1 -1.83,2.41" /><path
         id="path438"
         style="fill:#473048;fill-opacity:1;fill-rule:nonzero;stroke:none"
         d="m 1718.01,2190.16 c -2.53,-2.53 -6.89,-4.01 -12.27,-4 -9.34,-0.1 -20.83,4.73 -25.97,10.88 -1.8,2.08 -4.96,2.31 -7.04,0.51 -2.09,-1.81 -2.32,-4.96 -0.52,-7.05 7.92,-8.96 21.17,-14.22 33.53,-14.33 7.05,0.01 14.11,1.84 19.27,6.86 1.97,1.93 2,5.1 0.07,7.06 -1.94,1.97 -5.1,2 -7.06,0.07" /><path
         id="path440"
         style="fill:#473048;fill-opacity:1;fill-rule:nonzero;stroke:none"
         d="m 1741.18,2278.18 c 0,0 1.04,-1.79 2.62,-4.72 2.37,-4.38 5.94,-11.26 8.87,-17.99 1.46,-3.36 2.76,-6.68 3.66,-9.58 0.91,-2.87 1.38,-5.38 1.36,-6.67 l -0.05,-0.67 -0.02,-0.11 0.49,-0.14 -0.46,0.21 -0.03,-0.07 0.49,-0.14 -0.46,0.21 c -0.57,-1.53 -3.81,-4.55 -8.1,-6.55 -4.25,-2.1 -9.43,-3.43 -13.28,-3.41 -2.91,-0.02 -4.74,0.77 -5.31,1.4 -1.96,1.94 -5.12,1.92 -7.06,-0.05 -1.94,-1.96 -1.91,-5.12 0.05,-7.06 3.47,-3.34 7.97,-4.26 12.32,-4.28 5.91,0.03 12.15,1.76 17.65,4.42 5.46,2.74 10.31,6.17 12.82,11.39 0.75,1.68 0.93,3.29 0.94,4.85 -0.04,4.09 -1.3,8.39 -2.99,13.11 -5.08,13.95 -14.79,30.71 -14.86,30.84 -1.37,2.39 -4.43,3.21 -6.82,1.83 -2.39,-1.37 -3.21,-4.43 -1.83,-6.82" /><path
         id="path442"
         style="fill:#222426;fill-opacity:1;fill-rule:nonzero;stroke:none"
         d="m 1729.04,2529.67 c -72.99,44.85 -197.62,46.2 -235.23,-54.5 -27.29,-73.07 -6.25,-225.21 59.37,-290.76 34.34,-12.39 -6.11,116.52 24.55,117.97 7.79,0.36 14.02,-1.65 18.74,-5.14 4.42,2.53 2.55,-8.35 8.17,-7.56 21.2,2.99 40.04,42.08 49.8,65.49 13.05,31.27 81.8,20.9 110.8,38.87 35.17,21.78 46.76,46.63 46.76,46.63 0,0 -9.96,44.15 -82.96,89" /><path
         id="path444"
         style="fill:#f9b097;fill-opacity:1;fill-rule:nonzero;stroke:none"
         d="m 1552.66,2316.65 c 3.29,-27.65 16.21,-46.67 37.74,-47.25 21.53,-0.57 29.93,19.9 30.62,45.41 0.68,25.52 -13.96,45.28 -33.13,47.97 -22.26,3.13 -38.24,-20.78 -35.23,-46.13" /><path
         id="path446"
         style="fill:#222426;fill-opacity:1;fill-rule:nonzero;stroke:none"
         d="m 1793.66,2459.53 c 0,0 4.56,-47.41 17.36,-116.72 0,0 58.17,102.23 22.49,161.45 -9.21,15.28 -39.81,21.12 -61.37,30.9 -105.09,47.71 -179.11,20.98 -179.11,20.98 l 200.63,-96.61" /><g
         transform="scale(10)"
         id="g448"><text
           id="text452"
           style="font-variant:normal;font-weight:bold;font-size:46px;font-family:LearningCurve;-inkscape-font-specification:LearningCurve-Bold;writing-mode:lr-tb;fill:#071426;fill-opacity:1;fill-rule:nonzero;stroke:none"
           transform="matrix(1,0,0,-1,162.299,330)">LOCUS</text>
<text
           id="text456"
           style="font-variant:normal;font-size:20px;font-family:Riffic;-inkscape-font-specification:Riffic-Bold;writing-mode:lr-tb;fill:#071426;fill-opacity:1;fill-rule:nonzero;stroke:none;transform:matrix(1,0,0,-1,147.2111,314.679) translate(50px, 10px);font-style: italic"
           transform="matrix(1,0,0,-1,147.2111,314.679)">Imobiliria</text>
</g></g></g></svg>