<?xml version="1.0" encoding="UTF-8" standalone="no"?>
<svg
   xmlns:dc="http://purl.org/dc/elements/1.1/"
   xmlns:cc="http://creativecommons.org/ns#"
   xmlns:rdf="http://www.w3.org/1999/02/22-rdf-syntax-ns#"
   xmlns:svg="http://www.w3.org/2000/svg"
   xmlns="http://www.w3.org/2000/svg"
   viewBox="0 0 750 500"
   height="300"
   width="300"
   xml:space="preserve"
   id="svg2"
   version="1.1"><metadata
     id="metadata8"><rdf:RDF><cc:Work
         rdf:about=""><dc:format>image/svg+xml</dc:format><dc:type
           rdf:resource="http://purl.org/dc/dcmitype/StillImage" /></cc:Work></rdf:RDF></metadata><defs
     id="defs6" /><g
     transform="matrix(1.1,0,0,-1.1,0,1000)" style="transform: matrix(1, 0, 0, -1.15, 0, 1200) translate(-250px, -250px)"
     id="g10"><g
       transform="scale(0.43)"
       id="g12"><path
         id="path14"
         style="fill:transparent;fill-opacity:1;fill-rule:nonzero;stroke:none"
         d="M 0,0 H 0 V 0 H 0 V 0" /><path
         id="path16"
         style="fill:transparent;fill-opacity:1;fill-rule:nonzero;stroke:none"
         d="m 1912.6,2741.92 -2.98,-2.99 V 1775.41 H 946.176 v 963.52 l -2.985,2.99 484.709,484.63 484.7,-484.63" /><path
         id="path18"
         style="fill:#059bb4;fill-opacity:1;fill-rule:nonzero;stroke:none"
         d="m 1859.91,2794.55 v 389.33 h -223.97 v -165.36" /><path
         id="path20"
         style="fill:#fbbf35;fill-opacity:1;fill-rule:nonzero;stroke:none"
         d="m 1427.88,2612.87 c -38.66,0 -70.01,31.34 -70.01,70.01 0,38.66 31.35,70 70.01,70 38.67,0 70.01,-31.34 70.01,-70 0,-38.67 -31.35,-70.01 -70.01,-70.01 z m 0,252.62 c -145.4,0 -263.28,-117.88 -263.28,-263.28 0,-102.33 58.35,-191 143.6,-234.56 v -431.5 l 74.42,-47.2 h 67.25 0.01 l 97.67,97.67 -37.1,61.03 37.1,61.04 -58.53,82.46 58.53,82.47 v 94.04 c 85.26,43.56 143.61,132.24 143.61,234.56 0.01,145.39 -117.87,263.27 -263.28,263.27" /><path
         id="path22"
         style="fill:rgba(255, 255, 255, 0.87);fill-opacity:1;fill-rule:nonzero;stroke:none"
         d="m 2127.37,2562.85 -465.53,465.53 v 128.23 H 1833.3 V 2895.2 c 0,-14.5 11.75,-26.25 26.25,-26.25 14.5,0 26.25,11.75 26.25,26.25 v 287.66 c 0,14.5 -11.75,26.26 -26.25,26.26 h -223.97 c -14.5,0 -26.25,-11.76 -26.25,-26.26 v -101.97 l -163.24,163.24 c -10.25,10.25 -26.87,10.25 -37.12,0 l -202.16,-202.16 c -10.26,-10.25 -10.26,-26.87 0,-37.12 10.25,-10.25 26.87,-10.25 37.12,0 l 183.6,183.6 455.48,-455.49 V 1800.69 H 972.047 v 932.27 l 211.513,211.51 c 10.25,10.25 10.25,26.87 0,37.12 -10.25,10.26 -26.87,10.26 -37.13,0 L 727.684,2562.85 c -10.25,-10.25 -10.25,-26.87 0,-37.12 5.125,-5.13 11.843,-7.69 18.566,-7.69 6.719,0 13.438,2.56 18.563,7.69 l 154.726,154.72 v -906.02 c 0,-14.5 11.754,-26.25 26.254,-26.25 h 963.467 c 14.5,0 26.25,11.75 26.25,26.25 v 906.02 l 154.73,-154.72 c 5.13,-5.13 11.85,-7.7 18.57,-7.7 6.72,0 13.43,2.56 18.56,7.7 10.25,10.25 10.25,26.87 0,37.12" /><path
         id="path24"
         style="fill:#f89a21;fill-opacity:1;fill-rule:nonzero;stroke:none"
         d="m 1391.02,2065.14 v 0 c -14.5,0 -26.25,-11.75 -26.25,-26.25 V 1915.2 c 0,-14.5 11.75,-26.25 26.25,-26.25 v 0 c 14.5,0 26.25,11.75 26.25,26.25 v 123.69 c 0,14.49 -11.75,26.25 -26.25,26.25" /><path
         id="path26"
         style="fill:#f89a21;fill-opacity:1;fill-rule:nonzero;stroke:none"
         d="m 1364.77,2353.05 v -227.51 c 0,-14.5 11.75,-26.25 26.25,-26.25 14.5,0 26.25,11.75 26.25,26.25 v 227.51 c 0,14.5 -11.75,26.25 -26.25,26.25 -14.5,0 -26.25,-11.75 -26.25,-26.25" /></g></g></svg>